<svg xmlns="http://www.w3.org/2000/svg" version="1.1" xmlns:xlink="http://www.w3.org/1999/xlink" xmlns:svgjs="http://svgjs.dev/svgjs" width="1500" height="1500" viewBox="0 0 1500 1500"><rect width="1500" height="1500" fill="#ffffff"></rect><g transform="matrix(0.6666666666666666,0,0,0.6666666666666666,249.39455621056874,527.8708097961821)"><svg viewBox="0 0 396 176" data-background-color="#000000" preserveAspectRatio="xMidYMid meet" height="666" width="1500" xmlns="http://www.w3.org/2000/svg" xmlns:xlink="http://www.w3.org/1999/xlink"><g id="tight-bounds" transform="matrix(1,0,0,1,0.23975574061478255,0.0512105312431288)"><svg viewBox="0 0 395.52 175.89757893751374" height="175.89757893751374" width="395.52"><g><svg viewBox="0 0 395.52 175.89757893751374" height="175.89757893751374" width="395.52"><g transform="matrix(1,0,0,1,0,97.05891498636129)"><svg viewBox="0 0 395.52 78.83866395115247" height="78.83866395115247" width="395.52"><g id="textblocktransform"><svg viewBox="0 0 395.52 78.83866395115247" height="78.83866395115247" width="395.52" id="textblock"><g><svg viewBox="0 0 395.52 53.09471554800229" height="53.09471554800229" width="395.52"><g transform="matrix(1,0,0,1,0,0)"><svg width="395.52" viewBox="1.599829999999999 -17.07824242410479 331.94875999999994 44.56090242410479" height="53.09471554800229" data-palette-color="#89939e"><path d="M10.737 16.14v0c-2.017-0.308-3.699-0.753-5.046-1.337-1.34-0.589-2.704-1.374-4.091-2.354v0l0.739-8.091 0.781 0.119 1.602 5.545c1.023 1.161 2.055 2.044 3.096 2.648 1.04 0.611 2.13 1.003 3.27 1.177v0c1.924 0.294 3.511 0.02 4.758-0.822 1.242-0.849 1.995-2.137 2.259-3.863v0c0.218-1.43 0.073-2.602-0.435-3.516-0.509-0.907-1.311-1.771-2.406-2.593-1.09-0.814-2.389-1.754-3.899-2.82v0c-1.409-1.018-2.594-1.981-3.555-2.89-0.96-0.915-1.64-1.913-2.041-2.992-0.402-1.08-0.488-2.367-0.26-3.864v0c0.169-1.107 0.601-2.151 1.297-3.13 0.702-0.979 1.584-1.829 2.645-2.55 1.061-0.721 2.206-1.245 3.436-1.569 1.237-0.33 2.472-0.402 3.705-0.214v0c1.503 0.229 2.862 0.622 4.078 1.179 1.218 0.55 2.442 1.253 3.674 2.109v0l-0.699 7.894-0.781-0.119-1.471-5.474c-1.01-1.024-1.909-1.788-2.695-2.293-0.793-0.505-1.743-0.843-2.85-1.012v0c-1.437-0.219-2.695 0.091-3.773 0.931-1.072 0.835-1.717 1.97-1.937 3.407v0c-0.254 1.661 0.053 3.033 0.92 4.116 0.866 1.083 2.294 2.309 4.284 3.679v0c1.841 1.279 3.335 2.431 4.48 3.455 1.145 1.025 1.945 2.124 2.399 3.3 0.456 1.169 0.557 2.584 0.303 4.244v0c-0.233 1.529-0.765 2.824-1.594 3.884-0.828 1.054-1.817 1.894-2.964 2.522-1.148 0.627-2.361 1.042-3.64 1.245-1.285 0.202-2.481 0.218-3.588 0.049zM38.323 19.485l-10.737-1.415 0.103-0.784 3.445-1.189 2.987-22.654-3.019-2.043 0.103-0.783 10.737 1.416-0.103 0.783-3.544 1.177-2.987 22.654 3.119 2.055zM55.102 21.244l-9.979-1.016 0.08-0.786 3.657-1.266 3.251-22.637-3.625-2.008 0.08-0.786 8.804 0.897 7.227 21.814 11.864-19.87 8.357 0.852-0.08 0.785-3.782 1.012-1.653 23.042 2.988 1.942-0.08 0.786-10.674-1.087 0.08-0.786 3.403-1.241 1.657-20.609-13.129 22.023-1.284-0.13-7.922-24.167-2.592 20.512 3.432 1.938zM100.637 25.236l-11.793-0.796 0.053-0.788 3.662-1.387 1.539-22.798-3.442-1.866 0.053-0.788 10.955 0.739c7.53 0.508 11.118 3.377 10.765 8.605v0c-0.113 1.676-0.72 3.089-1.819 4.237-1.1 1.149-2.57 1.985-4.409 2.509-1.832 0.518-3.916 0.698-6.251 0.54v0l-2.564-0.173-0.626 9.279 3.931 1.899zM100.71-0.037l-2.415-0.163-0.743 11.005 2.714 0.184c2.268 0.153 4.1-0.211 5.496-1.093 1.396-0.881 2.154-2.21 2.274-3.986v0c0.131-1.942-0.457-3.378-1.764-4.308-1.307-0.93-3.161-1.476-5.562-1.639zM139.386 27.089l-22.142-0.901 0.033-0.789 3.573-1.486 0.929-22.831-3.441-1.771 0.032-0.79 11.711 0.477-0.033 0.789-4.062 1.466-0.928 22.781 10.722 0.437 3.193-6.896 0.799 0.032zM168.783 27.483l-22.348-0.292 0.01-0.79 3.531-1.584 0.299-22.848-3.489-1.676 0.011-0.79 21.118 0.276-0.092 7.019-0.79-0.01-2.32-4.581-10.229-0.133-0.126 9.639 7.459 0.097 1.534-3.34 0.79 0.01-0.12 9.15-0.79-0.011-1.446-3.329-7.46-0.097-0.139 10.629 11.369 0.148 2.54-5.307 0.79 0.01zM192.033 27.302l-1.729 0.034-13.058-30.108-3.444-1.662-0.015-0.79 12.357-0.244 0.016 0.79-4.213 1.913 0.005 0.24 9.696 22.463 0.24-0.005 8.746-23.017-0.004-0.2-4.082-1.6-0.016-0.79 10.378-0.205 0.016 0.79-2.79 1.535zM220.555 26.061l-9.187 0.486-0.042-0.789 2.449-1.421 9.597-26.404 2.077-0.11 12.269 25.196 2.937 1.187 0.042 0.788-10.765 0.57-0.042-0.788 3.382-1.571-3.503-7.335-10.275 0.544-2.704 7.763 3.723 1.095zM223.928 3.701l-3.526 10.191 8.198-0.434zM261.076 23.771v0c-2.199 0.186-4.2-0.016-6.003-0.607-1.803-0.59-3.275-1.657-4.415-3.199-1.141-1.543-1.822-3.626-2.044-6.25v0l-1.238-14.638-3.684-1.324-0.067-0.787 11.29-0.955 0.066 0.787-3.41 1.924 1.209 14.289c0.275 3.255 1.188 5.469 2.739 6.643 1.558 1.173 3.569 1.655 6.033 1.447v0c1.442-0.122 2.73-0.512 3.866-1.17 1.135-0.658 2.011-1.582 2.625-2.771 0.608-1.195 0.837-2.68 0.688-4.454v0l-1.305-15.425-4.363-1.166-0.067-0.787 10.542-0.892 0.067 0.787-3.364 1.871 1.241 14.687c0.222 2.624-0.093 4.792-0.945 6.503-0.846 1.711-2.084 3.006-3.716 3.887-1.625 0.88-3.54 1.413-5.745 1.6zM304.689 18.683l-22.013 2.551-0.091-0.785 3.299-2.023-2.63-22.698-3.674-1.215-0.091-0.785 11.642-1.349 0.091 0.784-3.786 2.08 2.625 22.648 10.658-1.235 2.083-7.308 0.795-0.092zM329.997 15.011l-12.924 1.883-0.114-0.782 4.119-2.247-3.287-22.562-7.53 1.097-1.56 6.079-0.782 0.114-1.191-8.174 25.63-3.734 1.191 8.174-0.782 0.113-3.279-5.373-7.531 1.097 3.287 22.562 4.639 0.971z" opacity="1" transform="matrix(1,0,0,1,0,0)" fill="#000000" class="wordmark-text-0" data-fill-palette-color="primary" id="text-0"></path></svg></g></svg></g><g transform="matrix(1,0,0,1,118.31980799999998,69.29923997045154)"><svg viewBox="0 0 158.88038400000002 9.539423980700931" height="9.539423980700931" width="158.88038400000002"><g transform="matrix(1,0,0,1,0,0)"><svg width="158.88038400000002" viewBox="1.75 -33.4 746.06 44.8" height="9.539423980700931" data-palette-color="#dedede"><path d="M14.7 0L1.75 0 1.75-0.9 4.1-0.9Q4.8-0.9 4.8-1.5L4.8-1.5 4.8-30Q4.8-30.6 4.1-30.6L4.1-30.6 1.75-30.6 1.75-31.5 13.45-31.5Q17.2-31.5 19.88-29.45 22.55-27.4 22.55-24.15L22.55-24.15Q22.55-21.65 21.23-19.78 19.9-17.9 17.7-16.95L17.7-16.95Q20.85-16.25 22.83-14.1 24.8-11.95 24.8-8.38 24.8-4.8 21.85-2.4 18.9 0 14.7 0L14.7 0ZM14.45-16.05L14.45-16.05 8.9-16.05 8.9-1.4 14.45-1.4Q17.45-1.4 19.13-3.6 20.8-5.8 20.8-8.75 20.8-11.7 19.13-13.88 17.45-16.05 14.45-16.05ZM12.4-30.1L12.4-30.1 8.9-30.1 8.9-17.3 12.7-17.3Q15.65-17.3 17.1-19.3 18.55-21.3 18.55-23.98 18.55-26.65 17.05-28.38 15.55-30.1 12.4-30.1ZM39.85-11.2L39.85-11.65 39.9-13.4 39.9-15.15Q39.9-21 36.1-21L36.1-21Q34.45-21 33.52-19.88 32.6-18.75 32.6-17.25 32.6-15.75 33-14.65L33-14.65Q32.15-13.9 30.65-13.9 29.15-13.9 29.15-16.35 29.15-18.8 31.07-20.5 33-22.2 36.55-22.2L36.55-22.2Q43.5-22.2 43.5-14L43.5-14 43.5-3.75Q43.5-1.05 45-1.05L45-1.05Q45.7-1.05 46.22-1.7 46.75-2.35 46.75-3.2 46.75-4.05 46.6-4.8L46.6-4.8 47.55-4.95Q47.75-4.2 47.75-3.3L47.75-3.3Q47.75-1.5 46.67-0.45 45.6 0.6 43.85 0.6 42.1 0.6 41-0.83 39.9-2.25 39.9-5.1L39.9-5.1 39.9-6Q39.05-2.6 37.2-1 35.35 0.6 32.92 0.6 30.5 0.6 29.02-0.93 27.55-2.45 27.55-4.98 27.55-7.5 29.9-9.47 32.25-11.45 36.65-11.45L36.65-11.45Q37.6-11.45 39.85-11.2L39.85-11.2ZM34.05-1.3L34.05-1.3Q36.15-1.3 37.82-3.68 39.5-6.05 39.8-10.35L39.8-10.35Q39.3-10.4 38.4-10.4L38.4-10.4Q34.4-10.4 32.67-8.72 30.95-7.05 30.95-4.85L30.95-4.85Q30.95-3.4 31.8-2.35 32.65-1.3 34.05-1.3ZM71.09-14.6L71.09-14.6 71.09-1.5Q71.09-0.9 71.8-0.9L71.8-0.9 74.15-0.9 74.15 0 65.15 0 65.15-0.9 66.8-0.9Q67.5-0.9 67.5-1.5L67.5-1.5 67.5-15.25Q67.5-17.8 66.37-19.03 65.25-20.25 63.4-20.25L63.4-20.25Q60.8-20.25 59.1-17.18 57.4-14.1 57.4-8.35L57.4-8.35 57.4-1.6Q57.4-0.9 58.1-0.9L58.1-0.9 59.75-0.9 59.75 0 50.75 0 50.75-0.9 53.1-0.9Q53.8-0.9 53.8-1.5L53.8-1.5 53.8-20Q53.8-20.7 53.1-20.7L53.1-20.7 50.75-20.7 50.75-21.6 53.2-21.6Q56.2-21.6 57.4-21.9L57.4-21.9 57.4-15.1Q59.1-22.2 64.9-22.2L64.9-22.2Q67.5-22.2 69.3-20.33 71.09-18.45 71.09-14.6ZM80.44-1.6L80.44-1.6 80.44-30.8Q80.44-31.5 79.74-31.5L79.74-31.5 77.39-31.5 77.39-32.4 79.84-32.4Q82.84-32.4 84.04-32.7L84.04-32.7 84.04-1.5Q84.04-0.9 84.74-0.9L84.74-0.9 87.09-0.9 87.09 0 77.39 0 77.39-0.9 79.74-0.9Q80.44-0.9 80.44-1.6ZM90.74-20.7L90.74-21.6 97.44-21.6 97.44-20.7 95.59-20.7Q95.19-20.7 94.69-20.2L94.69-20.2 88.24-12.85 96.19-1.3Q96.44-0.9 96.89-0.9L96.89-0.9 98.94-0.9 98.94 0 96.59 0Q94.19 0 92.99 0.3L92.99 0.3 84.99-11.35 93.29-20.7 90.74-20.7ZM103.74-1.6L103.74-1.6 103.74-20Q103.74-20.7 103.04-20.7L103.04-20.7 100.69-20.7 100.69-21.6 103.14-21.6Q106.14-21.6 107.34-21.9L107.34-21.9 107.34-1.5Q107.34-0.9 108.04-0.9L108.04-0.9 110.39-0.9 110.39 0 100.69 0 100.69-0.9 103.04-0.9Q103.74-0.9 103.74-1.6ZM103.87-27.13Q103.19-27.8 103.19-28.8 103.19-29.8 103.87-30.48 104.54-31.15 105.54-31.15 106.54-31.15 107.22-30.48 107.89-29.8 107.89-28.8 107.89-27.8 107.22-27.13 106.54-26.45 105.54-26.45 104.54-26.45 103.87-27.13ZM134.49-14.6L134.49-14.6 134.49-1.5Q134.49-0.9 135.19-0.9L135.19-0.9 137.54-0.9 137.54 0 128.54 0 128.54-0.9 130.19-0.9Q130.89-0.9 130.89-1.5L130.89-1.5 130.89-15.25Q130.89-17.8 129.76-19.03 128.64-20.25 126.79-20.25L126.79-20.25Q124.19-20.25 122.49-17.18 120.79-14.1 120.79-8.35L120.79-8.35 120.79-1.6Q120.79-0.9 121.49-0.9L121.49-0.9 123.14-0.9 123.14 0 114.14 0 114.14-0.9 116.49-0.9Q117.19-0.9 117.19-1.5L117.19-1.5 117.19-20Q117.19-20.7 116.49-20.7L116.49-20.7 114.14-20.7 114.14-21.6 116.59-21.6Q119.59-21.6 120.79-21.9L120.79-21.9 120.79-15.1Q122.49-22.2 128.29-22.2L128.29-22.2Q130.89-22.2 132.69-20.33 134.49-18.45 134.49-14.6ZM160.69-21L160.69-21 160.29-21.05Q159.84-24.15 158.04-24.15L158.04-24.15Q157.14-24.15 156.39-23.2 155.64-22.25 155.49-20.7L155.49-20.7Q158.19-18.65 158.19-15 158.19-11.35 156.06-9.38 153.94-7.4 150.54-7.4L150.54-7.4 146.09-7.4Q144.84-7.4 144.16-6.7 143.49-6 143.49-5.05 143.49-4.1 144.16-3.4 144.84-2.7 146.09-2.7L146.09-2.7 154.44-2.7Q157.44-2.7 158.96-1.33 160.49 0.05 160.49 2.15L160.49 2.15Q160.49 5.5 157.34 8.45 154.19 11.4 149.49 11.4L149.49 11.4Q145.89 11.4 143.64 9.7 141.39 8 141.39 5.4 141.39 2.8 144.14 0.4L144.14 0.4Q142.84 0.05 142.06-1.07 141.29-2.2 141.29-3.85 141.29-5.5 142.49-6.83 143.69-8.15 146.09-8.15L146.09-8.15 146.84-8.15Q142.94-9.95 142.94-14.8L142.94-14.8Q142.94-18.25 145.04-20.23 147.14-22.2 150.54-22.2L150.54-22.2Q152.79-22.2 154.49-21.3L154.49-21.3Q154.84-23.3 155.91-24.6 156.99-25.9 158.76-25.9 160.54-25.9 161.71-24.95 162.89-24 162.89-22.9L162.89-22.9Q162.89-21 160.69-21ZM154.44 0.6L154.44 0.6 145.69 0.6Q144.09 2.45 144.09 4.8 144.09 7.15 145.49 8.68 146.89 10.2 150.01 10.2 153.14 10.2 155.69 8 158.24 5.8 158.24 3.45L158.24 3.45Q158.24 2.2 157.29 1.4 156.34 0.6 154.44 0.6ZM147.64-19.4Q146.49-17.7 146.49-14.8 146.49-11.9 147.64-10.2 148.79-8.5 150.54-8.5 152.29-8.5 153.46-10.2 154.64-11.9 154.64-14.8 154.64-17.7 153.46-19.4 152.29-21.1 150.54-21.1 148.79-21.1 147.64-19.4ZM191.33 0.3L191.33 0.3 191.33-4Q188.53 0.6 184.71 0.6 180.88 0.6 178.68-2.45 176.48-5.5 176.48-10.75 176.48-16 179.28-19.1 182.08-22.2 186.33-22.2L186.33-22.2Q189.08-22.2 191.33-20.85L191.33-20.85 191.33-30.8Q191.33-31.5 190.63-31.5L190.63-31.5 188.28-31.5 188.28-32.4 190.73-32.4Q193.73-32.4 194.93-32.7L194.93-32.7 194.93-1.6Q194.93-0.9 195.63-0.9L195.63-0.9 197.98-0.9 197.98 0 195.53 0Q192.53 0 191.33 0.3ZM186.46-20.7Q183.88-20.7 182.08-18.13 180.28-15.55 180.28-10.95 180.28-6.35 181.76-3.83 183.23-1.3 185.48-1.3L185.48-1.3Q188.73-1.3 191.33-5.85L191.33-5.85 191.33-19.3Q189.03-20.7 186.46-20.7ZM204.28-2.45Q201.48-5.5 201.48-10.8 201.48-16.1 204.28-19.15 207.08-22.2 211.58-22.2 216.08-22.2 218.9-19.15 221.73-16.1 221.73-10.8 221.73-5.5 218.9-2.45 216.08 0.6 211.58 0.6 207.08 0.6 204.28-2.45ZM207.08-18.32Q205.28-15.55 205.28-10.8 205.28-6.05 207.08-3.28 208.88-0.5 211.58-0.5 214.28-0.5 216.1-3.28 217.93-6.05 217.93-10.8 217.93-15.55 216.1-18.32 214.28-21.1 211.58-21.1 208.88-21.1 207.08-18.32ZM235.83-22.2L235.83-22.2Q239.28-22.2 241.28-19.9 243.28-17.6 243.28-13.15L243.28-13.15Q243.28-12.25 243.18-11.15L243.18-11.15 229.53-11.15 229.53-10.8Q229.53-6.05 231.25-3.33 232.98-0.6 235.7-0.6 238.43-0.6 240.18-2 241.93-3.4 242.58-6L242.58-6 243.53-5.8Q242.93-2.75 240.78-1.07 238.63 0.6 235.83 0.6L235.83 0.6Q231.48 0.6 228.6-2.45 225.73-5.5 225.73-10.78 225.73-16.05 228.63-19.13 231.53-22.2 235.83-22.2ZM239.83-14.85L239.83-14.85Q239.83-21 235.23-21L235.23-21Q232.93-21 231.3-18.5 229.68-16 229.58-12.15L229.58-12.15 239.63-12.15Q239.83-13.85 239.83-14.85ZM254.27-13.55L254.27-13.55 259.47-11.6Q261.32-10.9 262.3-9.47 263.27-8.05 263.27-6.3L263.27-6.3Q263.27-3.6 261.12-1.5 258.97 0.6 255.35 0.6 251.72 0.6 248.52-0.75L248.52-0.75Q248.82-1.95 248.82-4.95L248.82-4.95 248.82-6.95 249.72-6.95 250.07-4.35Q250.52-0.6 255.32-0.6L255.32-0.6Q257.47-0.6 258.9-1.93 260.32-3.25 260.32-4.95L260.32-4.95Q260.32-7.3 257.47-8.35L257.47-8.35 252.27-10.3Q250.52-10.95 249.62-12.35 248.72-13.75 248.72-15.5L248.72-15.5Q248.72-18.15 250.62-20.18 252.52-22.2 255.4-22.2 258.27-22.2 261.87-20.85L261.87-20.85Q261.57-19.65 261.57-16.65L261.57-16.65 261.57-14.65 260.67-14.65 260.32-17.25Q259.92-20.85 255.77-20.85L255.77-20.85Q253.92-20.85 252.72-19.7 251.52-18.55 251.52-17L251.52-17Q251.52-14.6 254.27-13.55ZM288.12-14.6L288.12-14.6 288.12-1.5Q288.12-0.9 288.82-0.9L288.82-0.9 291.17-0.9 291.17 0 282.17 0 282.17-0.9 283.82-0.9Q284.52-0.9 284.52-1.5L284.52-1.5 284.52-15.25Q284.52-17.8 283.4-19.03 282.27-20.25 280.42-20.25L280.42-20.25Q277.82-20.25 276.12-17.18 274.42-14.1 274.42-8.35L274.42-8.35 274.42-1.6Q274.42-0.9 275.12-0.9L275.12-0.9 276.77-0.9 276.77 0 267.77 0 267.77-0.9 270.12-0.9Q270.82-0.9 270.82-1.5L270.82-1.5 270.82-20Q270.82-20.7 270.12-20.7L270.12-20.7 267.77-20.7 267.77-21.6 270.22-21.6Q273.22-21.6 274.42-21.9L274.42-21.9 274.42-15.1Q276.12-22.2 281.92-22.2L281.92-22.2Q284.52-22.2 286.32-20.33 288.12-18.45 288.12-14.6ZM298.97-30.9L298.97-30.9 297.12-22.2 296.27-22.2 294.42-30.9Q294.42-32.1 295.07-32.75 295.72-33.4 296.72-33.4 297.72-33.4 298.34-32.75 298.97-32.1 298.97-30.9ZM307.37-26.9L307.37-26.9 308.12-26.9 308.12-21.6 313.12-21.6 313.12-20.7 308.12-20.7 308.12-3.75Q308.12-1.05 309.62-1.05L309.62-1.05Q310.32-1.05 310.84-1.7 311.37-2.35 311.37-3.2 311.37-4.05 311.22-4.8L311.22-4.8 312.17-4.95Q312.37-4.2 312.37-3.3L312.37-3.3Q312.37-1.5 311.29-0.45 310.22 0.6 308.47 0.6 306.72 0.6 305.62-0.83 304.52-2.25 304.52-5.1L304.52-5.1 304.52-20Q304.52-20.7 303.82-20.7L303.82-20.7 301.47-20.7 301.47-21.6 303.92-21.6Q305.52-21.6 307.37-26.9ZM348.01-21L348.01-21 347.61-21.05Q347.16-24.15 345.36-24.15L345.36-24.15Q344.46-24.15 343.71-23.2 342.96-22.25 342.81-20.7L342.81-20.7Q345.51-18.65 345.51-15 345.51-11.35 343.38-9.38 341.26-7.4 337.86-7.4L337.86-7.4 333.41-7.4Q332.16-7.4 331.49-6.7 330.81-6 330.81-5.05 330.81-4.1 331.49-3.4 332.16-2.7 333.41-2.7L333.41-2.7 341.76-2.7Q344.76-2.7 346.29-1.33 347.81 0.05 347.81 2.15L347.81 2.15Q347.81 5.5 344.66 8.45 341.51 11.4 336.81 11.4L336.81 11.4Q333.21 11.4 330.96 9.7 328.71 8 328.71 5.4 328.71 2.8 331.46 0.4L331.46 0.4Q330.16 0.05 329.38-1.07 328.61-2.2 328.61-3.85 328.61-5.5 329.81-6.83 331.01-8.15 333.41-8.15L333.41-8.15 334.16-8.15Q330.26-9.95 330.26-14.8L330.26-14.8Q330.26-18.25 332.36-20.23 334.46-22.2 337.86-22.2L337.86-22.2Q340.11-22.2 341.81-21.3L341.81-21.3Q342.16-23.3 343.24-24.6 344.31-25.9 346.09-25.9 347.86-25.9 349.04-24.95 350.21-24 350.21-22.9L350.21-22.9Q350.21-21 348.01-21ZM341.76 0.6L341.76 0.6 333.01 0.6Q331.41 2.45 331.41 4.8 331.41 7.15 332.81 8.68 334.21 10.2 337.34 10.2 340.46 10.2 343.01 8 345.56 5.8 345.56 3.45L345.56 3.45Q345.56 2.2 344.61 1.4 343.66 0.6 341.76 0.6ZM334.96-19.4Q333.81-17.7 333.81-14.8 333.81-11.9 334.96-10.2 336.11-8.5 337.86-8.5 339.61-8.5 340.79-10.2 341.96-11.9 341.96-14.8 341.96-17.7 340.79-19.4 339.61-21.1 337.86-21.1 336.11-21.1 334.96-19.4ZM361.41-22.2L361.41-22.2Q364.86-22.2 366.86-19.9 368.86-17.6 368.86-13.15L368.86-13.15Q368.86-12.25 368.76-11.15L368.76-11.15 355.11-11.15 355.11-10.8Q355.11-6.05 356.83-3.33 358.56-0.6 361.28-0.6 364.01-0.6 365.76-2 367.51-3.4 368.16-6L368.16-6 369.11-5.8Q368.51-2.75 366.36-1.07 364.21 0.6 361.41 0.6L361.41 0.6Q357.06 0.6 354.18-2.45 351.31-5.5 351.31-10.78 351.31-16.05 354.21-19.13 357.11-22.2 361.41-22.2ZM365.41-14.85L365.41-14.85Q365.41-21 360.81-21L360.81-21Q358.51-21 356.88-18.5 355.26-16 355.16-12.15L355.16-12.15 365.21-12.15Q365.41-13.85 365.41-14.85ZM378.25-26.9L378.25-26.9 379-26.9 379-21.6 384-21.6 384-20.7 379-20.7 379-3.75Q379-1.05 380.5-1.05L380.5-1.05Q381.21-1.05 381.73-1.7 382.25-2.35 382.25-3.2 382.25-4.05 382.11-4.8L382.11-4.8 383.06-4.95Q383.25-4.2 383.25-3.3L383.25-3.3Q383.25-1.5 382.18-0.45 381.11 0.6 379.36 0.6 377.61 0.6 376.5-0.83 375.41-2.25 375.41-5.1L375.41-5.1 375.41-20Q375.41-20.7 374.71-20.7L374.71-20.7 372.36-20.7 372.36-21.6 374.81-21.6Q376.41-21.6 378.25-26.9ZM406-13.55L406-13.55 411.2-11.6Q413.05-10.9 414.02-9.47 415-8.05 415-6.3L415-6.3Q415-3.6 412.85-1.5 410.7 0.6 407.07 0.6 403.45 0.6 400.25-0.75L400.25-0.75Q400.55-1.95 400.55-4.95L400.55-4.95 400.55-6.95 401.45-6.95 401.8-4.35Q402.25-0.6 407.05-0.6L407.05-0.6Q409.2-0.6 410.63-1.93 412.05-3.25 412.05-4.95L412.05-4.95Q412.05-7.3 409.2-8.35L409.2-8.35 404-10.3Q402.25-10.95 401.35-12.35 400.45-13.75 400.45-15.5L400.45-15.5Q400.45-18.15 402.35-20.18 404.25-22.2 407.13-22.2 410-22.2 413.6-20.85L413.6-20.85Q413.3-19.65 413.3-16.65L413.3-16.65 413.3-14.65 412.4-14.65 412.05-17.25Q411.65-20.85 407.5-20.85L407.5-20.85Q405.65-20.85 404.45-19.7 403.25-18.55 403.25-17L403.25-17Q403.25-14.6 406-13.55ZM422.55-1.6L422.55-1.6 422.55-20Q422.55-20.7 421.85-20.7L421.85-20.7 419.5-20.7 419.5-21.6 421.95-21.6Q424.95-21.6 426.15-21.9L426.15-21.9 426.15-1.5Q426.15-0.9 426.85-0.9L426.85-0.9 429.2-0.9 429.2 0 419.5 0 419.5-0.9 421.85-0.9Q422.55-0.9 422.55-1.6ZM422.67-27.13Q422-27.8 422-28.8 422-29.8 422.67-30.48 423.35-31.15 424.35-31.15 425.35-31.15 426.02-30.48 426.7-29.8 426.7-28.8 426.7-27.8 426.02-27.13 425.35-26.45 424.35-26.45 423.35-26.45 422.67-27.13ZM466-14.6L466-14.6 466-1.5Q466-0.9 466.69-0.9L466.69-0.9 469.05-0.9 469.05 0 460.05 0 460.05-0.9 461.69-0.9Q462.39-0.9 462.39-1.5L462.39-1.5 462.39-15.25Q462.39-17.8 461.34-19.03 460.3-20.25 458.5-20.25L458.5-20.25Q456-20.25 454.39-17.03 452.8-13.8 452.8-7.75L452.8-7.75 452.8-1.6Q452.8-0.9 453.5-0.9L453.5-0.9 455.84-0.9 455.84 0 446.84 0 446.84-0.9 448.5-0.9Q449.19-0.9 449.19-1.5L449.19-1.5 449.19-15.25Q449.19-17.8 448.14-19.03 447.09-20.25 445.3-20.25L445.3-20.25Q442.8-20.25 441.19-17.03 439.59-13.8 439.59-7.75L439.59-7.75 439.59-1.6Q439.59-0.9 440.3-0.9L440.3-0.9 441.94-0.9 441.94 0 432.94 0 432.94-0.9 435.3-0.9Q436-0.9 436-1.5L436-1.5 436-20Q436-20.7 435.3-20.7L435.3-20.7 432.94-20.7 432.94-21.6 435.39-21.6Q438.39-21.6 439.59-21.9L439.59-21.9 439.59-15.2Q441.25-22.2 446.69-22.2L446.69-22.2Q449.09-22.2 450.87-20.45 452.64-18.7 452.8-15.15L452.8-15.15Q454.44-22.2 459.89-22.2L459.89-22.2Q462.39-22.2 464.19-20.33 466-18.45 466-14.6ZM475.34 9.2L475.34 9.2 475.34-20Q475.34-20.7 474.64-20.7L474.64-20.7 472.29-20.7 472.29-21.6 474.74-21.6Q477.74-21.6 478.94-21.9L478.94-21.9 478.94-14.9Q479.79-18.5 481.67-20.35 483.54-22.2 485.84-22.2L485.84-22.2Q488.99-22.2 491.39-19.05 493.79-15.9 493.79-10.7 493.79-5.5 491.07-2.45 488.34 0.6 483.94 0.6L483.94 0.6Q481.19 0.6 478.94-0.75L478.94-0.75 478.94 9.2Q478.94 9.9 479.64 9.9L479.64 9.9 482.99 9.9 482.99 10.8 472.29 10.8 472.29 9.9 474.64 9.9Q475.34 9.9 475.34 9.2ZM489.99-10.6Q489.99-15.25 488.54-17.78 487.09-20.3 484.87-20.3 482.64-20.3 480.79-17.35 478.94-14.4 478.94-8.85L478.94-8.85 478.94-2.1Q481.14-0.65 483.77-0.65 486.39-0.65 488.19-3.3 489.99-5.95 489.99-10.6ZM500.34-1.6L500.34-1.6 500.34-30.8Q500.34-31.5 499.64-31.5L499.64-31.5 497.29-31.5 497.29-32.4 499.74-32.4Q502.74-32.4 503.94-32.7L503.94-32.7 503.94-1.6Q503.94-0.9 504.64-0.9L504.64-0.9 506.99-0.9 506.99 0 497.29 0 497.29-0.9 499.64-0.9Q500.34-0.9 500.34-1.6ZM520.59-22.2L520.59-22.2Q524.04-22.2 526.04-19.9 528.04-17.6 528.04-13.15L528.04-13.15Q528.04-12.25 527.94-11.15L527.94-11.15 514.29-11.15 514.29-10.8Q514.29-6.05 516.01-3.33 517.74-0.6 520.46-0.6 523.19-0.6 524.94-2 526.69-3.4 527.34-6L527.34-6 528.29-5.8Q527.69-2.75 525.54-1.07 523.39 0.6 520.59 0.6L520.59 0.6Q516.24 0.6 513.36-2.45 510.49-5.5 510.49-10.78 510.49-16.05 513.39-19.13 516.29-22.2 520.59-22.2ZM524.59-14.85L524.59-14.85Q524.59-21 519.99-21L519.99-21Q517.69-21 516.06-18.5 514.44-16 514.34-12.15L514.34-12.15 524.39-12.15Q524.59-13.85 524.59-14.85ZM545.28-22.2Q547.24-22.2 548.46-20.55 549.68-18.9 549.68-16.4 549.68-13.9 547.63-13.9L547.63-13.9Q546.43-13.9 545.68-14.65L545.68-14.65Q546.33-16.1 546.33-17.6L546.33-17.6Q546.33-20.25 544.13-20.25L544.13-20.25Q542.28-20.25 540.86-17.18 539.43-14.1 539.43-8.25L539.43-8.25 539.43-1.6Q539.43-0.9 540.13-0.9L540.13-0.9 543.49-0.9 543.49 0 532.78 0 532.78-0.9 535.13-0.9Q535.83-0.9 535.83-1.6L535.83-1.6 535.83-20Q535.83-20.7 535.13-20.7L535.13-20.7 532.78-20.7 532.78-21.6 535.24-21.6Q538.24-21.6 539.43-21.9L539.43-21.9 539.43-15.5Q540.24-18.95 541.78-20.58 543.33-22.2 545.28-22.2ZM569.33-26.9L569.33-26.9 570.08-26.9 570.08-21.6 575.08-21.6 575.08-20.7 570.08-20.7 570.08-3.75Q570.08-1.05 571.58-1.05L571.58-1.05Q572.28-1.05 572.8-1.7 573.33-2.35 573.33-3.2 573.33-4.05 573.18-4.8L573.18-4.8 574.13-4.95Q574.33-4.2 574.33-3.3L574.33-3.3Q574.33-1.5 573.25-0.45 572.18 0.6 570.43 0.6 568.68 0.6 567.58-0.83 566.48-2.25 566.48-5.1L566.48-5.1 566.48-20Q566.48-20.7 565.78-20.7L565.78-20.7 563.43-20.7 563.43-21.6 565.88-21.6Q567.48-21.6 569.33-26.9ZM597.93-14.6L597.93-14.6 597.93-1.5Q597.93-0.9 598.63-0.9L598.63-0.9 600.98-0.9 600.98 0 591.98 0 591.98-0.9 593.63-0.9Q594.33-0.9 594.33-1.5L594.33-1.5 594.33-15.25Q594.33-17.8 593.2-19.03 592.08-20.25 590.23-20.25L590.23-20.25Q587.63-20.25 585.93-17.18 584.23-14.1 584.23-8.35L584.23-8.35 584.23-1.6Q584.23-0.9 584.93-0.9L584.93-0.9 586.58-0.9 586.58 0 577.58 0 577.58-0.9 579.93-0.9Q580.63-0.9 580.63-1.5L580.63-1.5 580.63-30.8Q580.63-31.5 579.93-31.5L579.93-31.5 577.58-31.5 577.58-32.4 580.03-32.4Q583.03-32.4 584.23-32.7L584.23-32.7 584.23-15.1Q585.93-22.2 591.73-22.2L591.73-22.2Q594.33-22.2 596.13-20.33 597.93-18.45 597.93-14.6ZM616.77-11.2L616.77-11.65 616.82-13.4 616.82-15.15Q616.82-21 613.02-21L613.02-21Q611.37-21 610.45-19.88 609.52-18.75 609.52-17.25 609.52-15.75 609.92-14.65L609.92-14.65Q609.07-13.9 607.57-13.9 606.07-13.9 606.07-16.35 606.07-18.8 608-20.5 609.92-22.2 613.47-22.2L613.47-22.2Q620.42-22.2 620.42-14L620.42-14 620.42-3.75Q620.42-1.05 621.92-1.05L621.92-1.05Q622.62-1.05 623.15-1.7 623.67-2.35 623.67-3.2 623.67-4.05 623.52-4.8L623.52-4.8 624.47-4.95Q624.67-4.2 624.67-3.3L624.67-3.3Q624.67-1.5 623.6-0.45 622.52 0.6 620.77 0.6 619.02 0.6 617.92-0.83 616.82-2.25 616.82-5.1L616.82-5.1 616.82-6Q615.97-2.6 614.12-1 612.27 0.6 609.85 0.6 607.42 0.6 605.95-0.93 604.47-2.45 604.47-4.98 604.47-7.5 606.82-9.47 609.17-11.45 613.57-11.45L613.57-11.45Q614.52-11.45 616.77-11.2L616.77-11.2ZM610.97-1.3L610.97-1.3Q613.07-1.3 614.75-3.68 616.42-6.05 616.72-10.35L616.72-10.35Q616.22-10.4 615.32-10.4L615.32-10.4Q611.32-10.4 609.6-8.72 607.87-7.05 607.87-4.85L607.87-4.85Q607.87-3.4 608.72-2.35 609.57-1.3 610.97-1.3ZM648.02-14.6L648.02-14.6 648.02-1.5Q648.02-0.9 648.72-0.9L648.72-0.9 651.07-0.9 651.07 0 642.07 0 642.07-0.9 643.72-0.9Q644.42-0.9 644.42-1.5L644.42-1.5 644.42-15.25Q644.42-17.8 643.3-19.03 642.17-20.25 640.32-20.25L640.32-20.25Q637.72-20.25 636.02-17.18 634.32-14.1 634.32-8.35L634.32-8.35 634.32-1.6Q634.32-0.9 635.02-0.9L635.02-0.9 636.67-0.9 636.67 0 627.67 0 627.67-0.9 630.02-0.9Q630.72-0.9 630.72-1.5L630.72-1.5 630.72-20Q630.72-20.7 630.02-20.7L630.02-20.7 627.67-20.7 627.67-21.6 630.12-21.6Q633.12-21.6 634.32-21.9L634.32-21.9 634.32-15.1Q636.02-22.2 641.82-22.2L641.82-22.2Q644.42-22.2 646.22-20.33 648.02-18.45 648.02-14.6ZM672.22-26.9L672.22-26.9 672.97-26.9 672.97-21.6 677.97-21.6 677.97-20.7 672.97-20.7 672.97-3.75Q672.97-1.05 674.47-1.05L674.47-1.05Q675.17-1.05 675.69-1.7 676.22-2.35 676.22-3.2 676.22-4.05 676.07-4.8L676.07-4.8 677.02-4.95Q677.22-4.2 677.22-3.3L677.22-3.3Q677.22-1.5 676.14-0.45 675.07 0.6 673.32 0.6 671.57 0.6 670.47-0.83 669.37-2.25 669.37-5.1L669.37-5.1 669.37-20Q669.37-20.7 668.67-20.7L668.67-20.7 666.32-20.7 666.32-21.6 668.77-21.6Q670.37-21.6 672.22-26.9ZM700.81-14.6L700.81-14.6 700.81-1.5Q700.81-0.9 701.51-0.9L701.51-0.9 703.86-0.9 703.86 0 694.86 0 694.86-0.9 696.51-0.9Q697.21-0.9 697.21-1.5L697.21-1.5 697.21-15.25Q697.21-17.8 696.09-19.03 694.96-20.25 693.11-20.25L693.11-20.25Q690.51-20.25 688.81-17.18 687.11-14.1 687.11-8.35L687.11-8.35 687.11-1.6Q687.11-0.9 687.81-0.9L687.81-0.9 689.46-0.9 689.46 0 680.46 0 680.46-0.9 682.81-0.9Q683.51-0.9 683.51-1.5L683.51-1.5 683.51-30.8Q683.51-31.5 682.81-31.5L682.81-31.5 680.46-31.5 680.46-32.4 682.91-32.4Q685.91-32.4 687.11-32.7L687.11-32.7 687.11-15.1Q688.81-22.2 694.61-22.2L694.61-22.2Q697.21-22.2 699.01-20.33 700.81-18.45 700.81-14.6ZM710.66-1.6L710.66-1.6 710.66-20Q710.66-20.7 709.96-20.7L709.96-20.7 707.61-20.7 707.61-21.6 710.06-21.6Q713.06-21.6 714.26-21.9L714.26-21.9 714.26-1.5Q714.26-0.9 714.96-0.9L714.96-0.9 717.31-0.9 717.31 0 707.61 0 707.61-0.9 709.96-0.9Q710.66-0.9 710.66-1.6ZM710.79-27.13Q710.11-27.8 710.11-28.8 710.11-29.8 710.79-30.48 711.46-31.15 712.46-31.15 713.46-31.15 714.14-30.48 714.81-29.8 714.81-28.8 714.81-27.8 714.14-27.13 713.46-26.45 712.46-26.45 711.46-26.45 710.79-27.13ZM727.31-13.55L727.31-13.55 732.51-11.6Q734.36-10.9 735.33-9.47 736.31-8.05 736.31-6.3L736.31-6.3Q736.31-3.6 734.16-1.5 732.01 0.6 728.38 0.6 724.76 0.6 721.56-0.75L721.56-0.75Q721.86-1.95 721.86-4.95L721.86-4.95 721.86-6.95 722.76-6.95 723.11-4.35Q723.56-0.6 728.36-0.6L728.36-0.6Q730.51-0.6 731.93-1.93 733.36-3.25 733.36-4.95L733.36-4.95Q733.36-7.3 730.51-8.35L730.51-8.35 725.31-10.3Q723.56-10.95 722.66-12.35 721.76-13.75 721.76-15.5L721.76-15.5Q721.76-18.15 723.66-20.18 725.56-22.2 728.43-22.2 731.31-22.2 734.91-20.85L734.91-20.85Q734.61-19.65 734.61-16.65L734.61-16.65 734.61-14.65 733.71-14.65 733.36-17.25Q732.96-20.85 728.81-20.85L728.81-20.85Q726.96-20.85 725.76-19.7 724.56-18.55 724.56-17L724.56-17Q724.56-14.6 727.31-13.55ZM747.71-29.15L747.71-29.15 746.06-8.5 744.76-8.5 743.06-29.15Q743.06-32.1 745.38-32.1 747.71-32.1 747.71-29.15ZM747.08-3.5Q747.81-2.8 747.81-1.8 747.81-0.8 747.08-0.1 746.36 0.6 745.41 0.6 744.46 0.6 743.73-0.1 743.01-0.8 743.01-1.8 743.01-2.8 743.73-3.5 744.46-4.2 745.41-4.2 746.36-4.2 747.08-3.5Z" opacity="1" transform="matrix(1,0,0,1,0,0)" fill="#000000" class="slogan-text-1" data-fill-palette-color="secondary" id="text-1"></path></svg></g></svg></g></svg></g></svg></g><g transform="matrix(1,0,0,1,162.43165557101403,0)"><svg viewBox="0 0 70.65668885797193 93.81801010187144" height="93.81801010187144" width="70.65668885797193"><g><svg xmlns="http://www.w3.org/2000/svg" xmlns:xlink="http://www.w3.org/1999/xlink" version="1.1" x="0" y="0" viewBox="4 0 24.1 32" style="enable-background:new 0 0 32 32;" xml:space="preserve" height="93.81801010187144" width="70.65668885797193" class="icon-icon-0" data-fill-palette-color="accent" id="icon-0"><g class="" display="none" fill="#dedede" data-fill-palette-color="accent"><g class="" display="inline" fill="#dedede" data-fill-palette-color="accent"><g fill="#dedede" data-fill-palette-color="accent"><g fill="#dedede" data-fill-palette-color="accent"><path class="" d="M16 11.5l7 5.3H9L16 11.5M16 10.2l-9.9 7.5H26L16 10.2 16 10.2z" fill="#000000" data-fill-palette-color="accent"></path></g></g><g fill="#dedede" data-fill-palette-color="accent"><g fill="#dedede" data-fill-palette-color="accent"><path class="" d="M24.7 29.4V31H7.3v-1.6H24.7M25.7 28.4H6.3V32h19.4L25.7 28.4 25.7 28.4z" fill="#000000" data-fill-palette-color="accent"></path></g></g><g fill="#dedede" data-fill-palette-color="accent"><g fill="#dedede" data-fill-palette-color="accent"><path class="" d="M22.2 19.9v6.3h-1.5v-6.3H22.2M23.2 18.9h-3.5v8.3h3.5V18.9L23.2 18.9z" fill="#000000" data-fill-palette-color="accent"></path></g></g><g fill="#dedede" data-fill-palette-color="accent"><g fill="#dedede" data-fill-palette-color="accent"><path class="" d="M16.8 19.9v6.3h-1.5v-6.3H16.8M17.8 18.9h-3.5v8.3h3.5V18.9L17.8 18.9z" fill="#000000" data-fill-palette-color="accent"></path></g></g><g fill="#dedede" data-fill-palette-color="accent"><g fill="#dedede" data-fill-palette-color="accent"><path class="" d="M11.4 19.9v6.3H9.8v-6.3H11.4M12.4 18.9H8.8v8.3h3.5V18.9L12.4 18.9z" fill="#000000" data-fill-palette-color="accent"></path></g></g></g><line class="" x1="16" y1="6.3" x2="16" y2="0" display="inline" fill="none" stroke="#dedede" stroke-miterlimit="10"></line><line class="" x1="19.1" y1="7.2" x2="24" y2="2.2" display="inline" fill="none" stroke="#dedede" stroke-miterlimit="10"></line><line class="" x1="21.8" y1="9.9" x2="28" y2="9.9" display="inline" fill="none" stroke="#dedede" stroke-miterlimit="10"></line><g class="" display="inline" fill="#dedede" data-fill-palette-color="accent"><line class="" x1="12.9" y1="7.2" x2="8" y2="2.2" fill="none" stroke="#dedede" stroke-miterlimit="10"></line><line class="" x1="10.2" y1="9.9" x2="4" y2="9.9" fill="none" stroke="#dedede" stroke-miterlimit="10"></line></g></g><g fill="#dedede" data-fill-palette-color="accent"><g fill="#dedede" data-fill-palette-color="accent"><path d="M26 17.7l-10-7.5-9.9 7.5H26zM23 16.7H9l7-5.3L23 16.7z" fill="#000000" data-fill-palette-color="accent"></path><path d="M6.3 32h19.4v-3.6H6.3V32zM7.3 29.4h17.4V31H7.3V29.4z" fill="#000000" data-fill-palette-color="accent"></path><path d="M19.6 18.9v8.3h3.5v-8.3H19.6zM22.2 26.2h-1.5v-6.3h1.5V26.2z" fill="#000000" data-fill-palette-color="accent"></path><path d="M14.2 18.9v8.3h3.5v-8.3H14.2zM16.8 26.2h-1.5v-6.3h1.5V26.2z" fill="#000000" data-fill-palette-color="accent"></path><path d="M8.8 18.9v8.3h3.5v-8.3H8.8zM11.4 26.2H9.8v-6.3h1.5V26.2z" fill="#000000" data-fill-palette-color="accent"></path><rect x="15.5" y="0" width="1" height="6.3" fill="#000000" data-fill-palette-color="accent"></rect><rect x="18.1" y="4.2" transform="matrix(0.7071 -0.7071 0.7071 0.7071 2.9927 16.633)" width="7" height="1" fill="#000000" data-fill-palette-color="accent"></rect><rect x="21.8" y="9.4" width="6.3" height="1" fill="#000000" data-fill-palette-color="accent"></rect><rect x="9.9" y="1.2" transform="matrix(0.7071 -0.7071 0.7071 0.7071 -0.2751 8.7528)" width="1" height="7" fill="#000000" data-fill-palette-color="accent"></rect><rect x="4" y="9.4" width="6.3" height="1" fill="#000000" data-fill-palette-color="accent"></rect></g></g></svg></g></svg></g><g></g></svg></g><defs></defs></svg><rect width="395.52" height="175.89757893751374" fill="none" stroke="none" visibility="hidden"></rect></g></svg></g></svg>