<svg id="svg" version="1.1" xmlns="http://www.w3.org/2000/svg" xmlns:xlink="http://www.w3.org/1999/xlink" width="400" height="400" viewBox="0, 0, 400,400"><g id="svgg"><path id="path0" d="M90.157 79.100 C 73.584 96.726,67.600 103.222,67.600 103.587 C 67.600 103.869,81.321 104.000,110.778 104.000 L 153.955 104.000 154.927 103.100 C 155.698 102.387,176.878 79.766,181.144 75.100 L 182.150 74.000 138.551 74.000 L 94.953 74.000 90.157 79.100 M66.067 105.963 C 66.200 106.325,75.787 116.491,84.969 126.006 C 87.626 128.760,95.194 136.680,101.788 143.606 C 108.381 150.533,116.112 158.585,118.969 161.500 L 124.162 166.800 153.081 166.800 C 168.986 166.800,182.000 166.693,182.000 166.563 C 182.000 166.301,178.683 162.767,166.408 149.952 C 161.902 145.249,154.612 137.629,150.208 133.019 C 145.803 128.410,138.080 120.355,133.045 115.119 L 123.891 105.600 94.912 105.600 C 77.734 105.600,65.988 105.748,66.067 105.963 M86.715 175.300 C 83.722 179.095,77.481 186.970,72.846 192.800 C 68.210 198.630,64.414 203.535,64.409 203.700 C 64.397 204.088,152.062 204.082,152.631 203.694 C 153.027 203.424,160.009 194.708,174.176 176.800 C 177.221 172.950,179.985 169.485,180.318 169.100 C 180.895 168.434,178.774 168.400,136.540 168.400 L 92.156 168.400 86.715 175.300 M114.147 217.900 C 114.732 219.935,116.009 224.601,116.802 227.600 C 117.297 229.470,118.199 232.800,118.807 235.000 C 119.415 237.200,120.852 242.510,122.001 246.800 C 124.809 257.285,125.516 259.901,126.810 264.600 C 127.416 266.800,128.851 272.110,129.998 276.400 C 131.145 280.690,132.403 285.370,132.793 286.800 C 135.848 298.000,139.200 310.409,140.844 316.600 C 141.311 318.360,142.084 321.150,142.561 322.800 L 143.428 325.800 148.614 325.915 C 155.042 326.058,155.459 325.965,155.812 324.300 C 155.964 323.585,156.949 319.850,158.001 316.000 C 159.053 312.150,160.856 305.490,162.006 301.200 C 163.157 296.910,164.796 290.842,165.649 287.716 C 167.653 280.371,167.858 282.733,163.978 268.400 C 163.115 265.210,162.024 261.160,161.553 259.400 C 161.083 257.640,160.201 254.400,159.593 252.200 C 158.985 250.000,157.549 244.690,156.402 240.400 C 155.255 236.110,153.992 231.430,153.595 230.000 C 153.198 228.570,152.271 225.106,151.536 222.303 L 150.200 217.206 132.073 217.203 C 114.999 217.200,113.958 217.241,114.147 217.900 M185.060 221.501 C 184.433 223.866,183.593 226.970,183.194 228.400 C 182.795 229.830,180.996 236.490,179.197 243.200 C 177.397 249.910,175.601 256.570,175.204 258.000 C 174.808 259.430,173.545 264.110,172.398 268.400 C 171.251 272.690,169.815 278.000,169.207 280.200 C 168.599 282.400,167.717 285.640,167.248 287.400 C 165.739 293.056,162.442 305.269,161.201 309.800 C 158.598 319.306,157.200 324.741,157.200 325.356 C 157.200 326.390,192.997 326.335,193.537 325.300 C 193.883 324.636,194.834 321.354,196.752 314.200 C 197.224 312.440,199.048 305.690,200.806 299.200 C 202.563 292.710,204.924 283.980,206.053 279.800 C 211.936 258.007,212.495 255.945,215.207 246.000 C 215.597 244.570,216.855 239.890,218.002 235.600 C 219.149 231.310,220.592 226.000,221.208 223.800 C 221.824 221.600,222.449 219.215,222.596 218.500 L 222.864 217.200 204.532 217.201 L 186.200 217.203 185.060 221.501 " stroke="none" fill="#fc944c" fill-rule="evenodd"></path><path id="path1" d="M0.000 200.000 L 0.000 400.000 200.000 400.000 L 400.000 400.000 400.000 200.000 L 400.000 0.000 200.000 0.000 L 0.000 0.000 0.000 200.000 M182.800 73.982 C 182.800 74.193,180.955 76.317,178.700 78.704 C 176.445 81.090,171.450 86.428,167.600 90.565 C 163.750 94.703,159.310 99.463,157.733 101.144 L 154.866 104.200 139.251 104.400 L 123.636 104.600 128.918 110.010 C 131.823 112.986,135.814 117.126,137.787 119.210 C 139.760 121.295,143.540 125.257,146.187 128.015 C 148.834 130.773,152.794 134.913,154.986 137.215 C 157.178 139.517,160.962 143.470,163.393 146.000 C 175.776 158.881,183.200 166.737,183.200 166.956 C 183.200 167.090,169.782 167.200,153.382 167.200 L 123.564 167.200 122.682 166.272 C 120.814 164.307,113.611 156.780,109.011 151.987 C 106.365 149.230,102.586 145.270,100.613 143.187 C 98.640 141.104,94.860 137.143,92.213 134.385 C 89.566 131.627,85.606 127.487,83.414 125.185 C 81.222 122.883,77.442 118.930,75.014 116.400 C 63.975 104.896,63.901 104.800,66.066 104.800 C 66.651 104.800,66.816 104.618,66.642 104.164 C 66.405 103.549,67.390 102.436,80.600 88.389 C 82.580 86.284,86.509 82.095,89.332 79.081 L 94.463 73.600 138.632 73.600 C 166.457 73.600,182.800 73.742,182.800 73.982 M280.967 158.243 C 281.795 158.561,281.772 159.107,280.626 166.200 C 280.092 169.500,279.072 175.980,278.358 180.600 C 276.929 189.842,276.872 190.000,275.000 190.000 C 272.762 190.000,272.761 190.024,275.296 174.000 C 277.927 157.366,278.019 157.111,280.967 158.243 M194.177 160.089 C 195.013 161.282,194.962 162.087,193.971 163.346 C 192.437 165.296,189.200 164.359,189.200 161.965 C 189.200 159.613,192.874 158.229,194.177 160.089 M215.061 168.167 C 216.195 168.695,217.534 169.684,218.036 170.364 C 219.066 171.756,219.654 171.898,220.445 170.946 C 223.380 167.409,232.089 166.025,236.349 168.419 C 240.164 170.564,240.642 172.883,239.230 182.400 C 238.154 189.649,238.017 190.000,236.258 190.000 C 234.006 190.000,233.936 189.604,235.020 182.997 C 236.754 172.433,235.648 170.286,228.792 170.907 C 222.342 171.492,219.909 174.556,218.384 184.013 C 217.488 189.569,217.293 189.988,215.600 189.988 C 213.398 189.988,213.384 189.877,214.586 182.092 C 215.991 172.989,215.395 171.370,210.463 170.896 C 203.072 170.186,199.460 173.802,197.931 183.443 C 196.937 189.712,196.808 190.000,195.000 190.000 C 192.821 190.000,192.807 189.743,194.451 179.400 C 196.456 166.780,196.084 167.930,198.113 168.078 C 199.739 168.196,199.798 168.247,199.741 169.500 C 199.670 171.071,199.694 171.074,201.460 169.727 C 204.904 167.100,211.215 166.376,215.061 168.167 M266.041 168.307 C 276.752 173.042,273.428 186.931,260.800 190.207 C 255.524 191.576,249.550 190.453,246.522 187.522 L 245.244 186.286 245.026 187.243 C 244.907 187.769,244.437 190.438,243.982 193.174 C 242.998 199.099,243.147 198.800,241.164 198.800 C 238.931 198.800,238.924 199.262,241.403 183.566 C 244.109 166.430,243.683 168.000,245.627 168.000 C 247.196 168.000,247.200 168.005,247.200 169.600 C 247.200 171.499,247.245 171.511,249.078 170.113 C 252.903 167.196,261.465 166.284,266.041 168.307 M303.515 168.380 C 307.427 170.103,309.593 173.464,309.598 177.820 C 309.601 180.914,310.086 180.800,296.920 180.800 C 283.848 180.800,284.135 180.728,286.223 183.466 C 289.494 187.754,299.137 188.007,305.727 183.978 C 308.026 182.572,307.779 182.596,308.784 183.675 C 312.631 187.804,296.020 192.779,288.400 189.780 C 277.276 185.402,278.873 171.940,290.985 167.989 C 294.412 166.871,300.521 167.062,303.515 168.380 M181.600 168.201 C 181.600 168.416,177.521 173.773,175.200 176.606 C 174.430 177.546,173.036 179.279,172.102 180.458 C 171.168 181.636,168.336 185.210,165.809 188.400 C 163.281 191.590,160.715 194.803,160.106 195.539 C 159.498 196.276,158.550 197.478,158.000 198.210 C 154.530 202.833,153.485 204.013,152.691 204.204 C 150.630 204.702,63.800 204.212,63.800 203.702 C 63.800 203.203,65.218 201.233,68.200 197.591 C 69.080 196.516,70.520 194.712,71.400 193.581 C 72.280 192.451,73.630 190.752,74.400 189.805 C 75.881 187.986,77.333 186.157,82.186 180.000 C 83.834 177.910,85.771 175.501,86.491 174.647 C 87.211 173.792,87.980 172.789,88.200 172.418 C 88.420 172.047,89.313 170.901,90.185 169.871 L 91.769 168.000 136.685 168.000 C 161.388 168.000,181.600 168.091,181.600 168.201 M192.788 168.900 C 192.752 171.496,189.607 189.350,189.132 189.651 C 188.454 190.080,186.755 190.086,186.085 189.661 C 185.611 189.360,188.383 169.398,189.048 168.322 C 189.568 167.480,192.800 167.980,192.788 168.900 M254.114 171.357 C 242.277 175.218,243.544 187.035,255.790 186.983 C 265.182 186.943,271.388 179.882,267.200 174.001 C 265.305 171.339,258.430 169.950,254.114 171.357 M292.600 171.340 C 289.982 172.200,288.544 173.096,287.236 174.683 C 285.117 177.253,284.935 177.200,295.850 177.200 L 305.700 177.200 305.460 176.002 C 304.650 171.949,298.039 169.553,292.600 171.340 M150.971 217.811 C 151.335 218.368,151.545 218.965,151.437 219.140 C 151.329 219.315,151.507 219.970,151.831 220.596 C 152.156 221.222,152.352 221.929,152.266 222.167 C 152.180 222.405,152.368 223.111,152.684 223.736 C 153.000 224.361,153.168 225.105,153.059 225.390 C 152.950 225.675,153.127 226.289,153.453 226.755 C 153.779 227.220,153.930 227.789,153.789 228.018 C 153.647 228.248,153.830 228.892,154.196 229.450 C 154.562 230.008,154.771 230.698,154.662 230.983 C 154.553 231.267,154.726 232.006,155.046 232.624 C 155.367 233.242,155.546 233.964,155.445 234.228 C 155.343 234.492,155.492 235.044,155.775 235.454 C 156.249 236.141,156.477 237.013,157.004 240.158 C 157.111 240.794,157.395 241.553,157.637 241.844 C 157.878 242.135,157.993 242.604,157.892 242.887 C 157.791 243.169,157.879 243.732,158.088 244.137 C 158.297 244.542,158.536 245.416,158.620 246.079 C 158.704 246.743,158.985 247.540,159.243 247.852 C 159.502 248.164,159.610 248.523,159.483 248.651 C 159.355 248.778,159.441 249.359,159.673 249.941 C 159.905 250.524,160.164 251.532,160.249 252.182 C 160.334 252.832,160.583 253.543,160.802 253.762 C 161.021 253.981,161.200 254.653,161.200 255.256 C 161.200 255.859,161.360 256.452,161.556 256.573 C 161.751 256.694,162.020 257.469,162.154 258.296 C 162.691 261.635,162.815 262.137,163.233 262.640 C 163.473 262.929,163.556 263.348,163.418 263.571 C 163.280 263.794,163.437 264.499,163.768 265.138 C 164.098 265.776,164.280 266.386,164.173 266.494 C 164.065 266.601,164.194 267.209,164.459 267.845 C 164.724 268.480,164.989 269.420,165.049 269.933 C 165.108 270.446,165.362 271.114,165.613 271.416 C 165.864 271.718,165.956 272.148,165.818 272.371 C 165.680 272.594,165.837 273.299,166.168 273.938 C 166.498 274.576,166.661 275.206,166.530 275.336 C 166.399 275.467,166.476 276.075,166.701 276.687 C 166.926 277.299,167.323 278.583,167.583 279.539 C 168.081 281.370,168.373 281.484,168.600 279.935 C 168.676 279.421,169.106 277.839,169.556 276.421 C 170.006 275.002,170.298 273.764,170.203 273.670 C 170.109 273.576,170.302 272.976,170.632 272.338 C 170.963 271.699,171.128 271.007,171.000 270.800 C 170.872 270.592,171.064 269.969,171.427 269.414 C 171.791 268.860,171.992 268.157,171.875 267.852 C 171.758 267.547,171.814 267.141,171.998 266.949 C 172.183 266.757,172.419 266.040,172.523 265.355 C 172.628 264.670,172.906 263.749,173.142 263.308 C 173.379 262.866,173.486 262.419,173.381 262.314 C 173.276 262.209,173.472 261.446,173.818 260.618 C 174.164 259.791,174.353 259.020,174.239 258.906 C 174.125 258.792,174.302 258.176,174.632 257.538 C 174.963 256.899,175.128 256.207,175.000 256.000 C 174.872 255.792,175.060 255.175,175.418 254.629 C 175.776 254.082,175.956 253.453,175.818 253.229 C 175.680 253.006,175.820 252.323,176.129 251.712 C 176.438 251.100,176.608 250.369,176.507 250.087 C 176.407 249.804,176.531 249.324,176.784 249.020 C 177.036 248.715,177.292 248.046,177.351 247.533 C 177.411 247.020,177.673 246.090,177.933 245.466 C 178.193 244.843,178.304 244.168,178.180 243.967 C 178.055 243.766,178.221 243.220,178.547 242.755 C 178.873 242.289,179.050 241.673,178.939 241.386 C 178.829 241.099,179.015 240.444,179.352 239.929 C 179.689 239.415,179.967 238.635,179.970 238.197 C 179.980 236.756,180.501 234.613,181.025 233.854 C 181.308 233.444,181.457 232.892,181.355 232.628 C 181.254 232.364,181.438 231.632,181.765 231.002 C 182.092 230.373,182.271 229.715,182.163 229.540 C 182.055 229.366,182.252 228.673,182.600 228.000 C 182.948 227.327,183.125 226.602,182.993 226.389 C 182.861 226.176,183.014 225.629,183.333 225.175 C 183.651 224.720,183.823 224.011,183.716 223.599 C 183.608 223.187,183.794 222.458,184.130 221.979 C 184.465 221.500,184.643 220.857,184.525 220.549 C 184.407 220.241,184.507 219.753,184.747 219.464 C 184.988 219.174,185.251 218.501,185.332 217.969 L 185.480 217.000 204.440 217.000 L 223.400 217.000 223.534 217.946 C 223.607 218.467,223.472 219.088,223.234 219.326 C 222.995 219.565,222.800 220.339,222.800 221.047 C 222.800 221.754,222.592 222.403,222.337 222.488 C 222.082 222.573,221.890 223.214,221.910 223.914 C 221.930 224.614,221.778 225.290,221.573 225.417 C 221.368 225.543,221.200 226.166,221.200 226.800 C 221.200 227.434,221.020 228.064,220.800 228.200 C 220.580 228.336,220.394 229.022,220.387 229.724 C 220.380 230.426,220.123 231.332,219.815 231.739 C 219.507 232.145,219.339 232.697,219.442 232.965 C 219.545 233.233,219.367 233.958,219.046 234.576 C 218.726 235.194,218.565 235.965,218.690 236.290 C 218.815 236.615,218.688 237.022,218.408 237.195 C 218.129 237.368,217.900 238.024,217.901 238.655 C 217.902 239.285,217.668 240.136,217.381 240.546 C 217.095 240.956,216.957 241.543,217.075 241.851 C 217.193 242.159,217.062 242.684,216.784 243.019 C 216.506 243.354,216.294 244.158,216.313 244.807 C 216.331 245.455,216.178 246.090,215.973 246.217 C 215.768 246.343,215.600 246.966,215.600 247.600 C 215.600 248.234,215.420 248.864,215.200 249.000 C 214.980 249.136,214.800 249.852,214.800 250.590 C 214.800 251.329,214.592 252.003,214.337 252.088 C 214.082 252.173,213.890 252.814,213.910 253.514 C 213.930 254.214,213.778 254.890,213.573 255.017 C 213.368 255.143,213.200 255.766,213.200 256.400 C 213.200 257.034,213.020 257.664,212.800 257.800 C 212.580 257.936,212.394 258.622,212.387 259.324 C 212.380 260.026,212.123 260.932,211.815 261.339 C 211.507 261.745,211.339 262.297,211.442 262.565 C 211.545 262.833,211.362 263.568,211.035 264.198 C 210.708 264.827,210.521 265.472,210.618 265.630 C 210.716 265.788,210.541 266.408,210.230 267.008 C 209.918 267.608,209.755 268.339,209.867 268.631 C 209.980 268.924,209.805 269.543,209.480 270.007 C 209.155 270.472,208.984 271.219,209.102 271.667 C 209.219 272.116,209.082 272.626,208.795 272.803 C 208.510 272.979,208.292 273.678,208.311 274.355 C 208.330 275.032,208.178 275.690,207.973 275.817 C 207.768 275.943,207.594 276.532,207.587 277.124 C 207.580 277.716,207.329 278.523,207.030 278.919 C 206.730 279.314,206.581 280.007,206.700 280.460 C 206.819 280.916,206.684 281.425,206.395 281.603 C 206.110 281.779,205.892 282.478,205.911 283.155 C 205.930 283.832,205.778 284.490,205.573 284.617 C 205.368 284.743,205.200 285.467,205.200 286.224 C 205.200 286.981,205.020 287.600,204.800 287.600 C 204.580 287.600,204.394 288.185,204.387 288.900 C 204.380 289.615,204.123 290.532,203.815 290.939 C 203.507 291.345,203.339 291.897,203.442 292.165 C 203.545 292.433,203.362 293.168,203.035 293.798 C 202.708 294.427,202.521 295.072,202.618 295.230 C 202.716 295.388,202.541 296.008,202.230 296.608 C 201.918 297.208,201.755 297.939,201.867 298.231 C 201.980 298.524,201.805 299.143,201.480 299.607 C 201.155 300.072,200.984 300.819,201.102 301.267 C 201.219 301.716,201.082 302.226,200.795 302.403 C 200.510 302.579,200.292 303.278,200.311 303.955 C 200.330 304.632,200.178 305.290,199.973 305.417 C 199.768 305.543,199.594 306.132,199.587 306.724 C 199.580 307.316,199.329 308.123,199.030 308.519 C 198.730 308.914,198.581 309.607,198.700 310.060 C 198.819 310.516,198.684 311.025,198.395 311.203 C 198.110 311.379,197.892 312.078,197.911 312.755 C 197.930 313.432,197.778 314.090,197.573 314.217 C 197.368 314.343,197.200 314.989,197.200 315.652 C 197.200 316.315,196.946 317.111,196.636 317.422 C 196.325 317.732,196.163 318.338,196.276 318.768 C 196.388 319.198,196.212 319.933,195.884 320.401 C 195.557 320.869,195.384 321.619,195.502 322.067 C 195.619 322.515,195.500 323.015,195.237 323.177 C 194.975 323.339,194.738 323.906,194.710 324.436 C 194.581 326.931,195.978 326.806,168.436 326.781 L 143.400 326.759 142.665 325.758 C 142.261 325.208,142.024 324.515,142.138 324.218 C 142.252 323.921,142.093 323.345,141.785 322.939 C 141.477 322.532,141.220 321.626,141.213 320.924 C 141.206 320.222,141.020 319.536,140.800 319.400 C 140.580 319.264,140.400 318.634,140.400 318.000 C 140.400 317.366,140.232 316.743,140.027 316.617 C 139.822 316.490,139.670 315.832,139.689 315.155 C 139.708 314.478,139.490 313.779,139.205 313.603 C 138.916 313.425,138.781 312.916,138.900 312.460 C 139.019 312.007,138.870 311.314,138.570 310.919 C 138.271 310.523,138.020 309.716,138.013 309.124 C 138.006 308.532,137.832 307.943,137.627 307.817 C 137.422 307.690,137.270 307.032,137.289 306.355 C 137.308 305.678,137.090 304.979,136.805 304.803 C 136.516 304.625,136.381 304.116,136.500 303.660 C 136.619 303.207,136.470 302.514,136.170 302.119 C 135.871 301.723,135.620 300.815,135.613 300.100 C 135.606 299.385,135.432 298.800,135.227 298.800 C 135.021 298.800,134.869 298.266,134.887 297.614 C 134.906 296.961,134.694 296.154,134.416 295.819 C 134.138 295.484,134.008 294.955,134.128 294.644 C 134.247 294.333,134.093 293.745,133.785 293.339 C 133.477 292.932,133.220 292.026,133.213 291.324 C 133.206 290.622,133.020 289.936,132.800 289.800 C 132.580 289.664,132.400 289.034,132.400 288.400 C 132.400 287.766,132.232 287.143,132.027 287.017 C 131.822 286.890,131.669 286.255,131.687 285.607 C 131.706 284.958,131.494 284.154,131.216 283.819 C 130.938 283.484,130.808 282.955,130.928 282.644 C 131.047 282.333,130.893 281.745,130.585 281.339 C 130.277 280.932,130.020 280.116,130.013 279.524 C 130.006 278.932,129.832 278.343,129.627 278.217 C 129.422 278.090,129.269 277.455,129.287 276.807 C 129.306 276.158,129.094 275.354,128.816 275.019 C 128.538 274.684,128.408 274.155,128.528 273.844 C 128.647 273.533,128.493 272.945,128.185 272.539 C 127.877 272.132,127.620 271.226,127.613 270.524 C 127.606 269.822,127.408 269.128,127.173 268.983 C 126.938 268.838,126.833 268.490,126.941 268.209 C 127.049 267.929,126.874 267.194,126.554 266.576 C 126.233 265.958,126.048 265.252,126.142 265.006 C 126.237 264.761,126.069 264.119,125.771 263.580 C 125.473 263.041,125.222 262.116,125.214 261.524 C 125.206 260.932,125.020 260.336,124.800 260.200 C 124.580 260.064,124.400 259.434,124.400 258.800 C 124.400 258.166,124.220 257.536,124.000 257.400 C 123.780 257.264,123.600 256.544,123.600 255.800 C 123.600 255.056,123.404 254.326,123.165 254.178 C 122.926 254.031,122.817 253.578,122.923 253.173 C 123.029 252.769,122.870 252.114,122.570 251.719 C 122.271 251.323,122.020 250.516,122.013 249.924 C 122.006 249.332,121.832 248.743,121.627 248.617 C 121.422 248.490,121.269 247.855,121.287 247.207 C 121.306 246.558,121.094 245.754,120.816 245.419 C 120.538 245.084,120.408 244.555,120.528 244.244 C 120.647 243.933,120.493 243.345,120.185 242.939 C 119.877 242.532,119.620 241.626,119.613 240.924 C 119.606 240.222,119.408 239.528,119.173 239.383 C 118.938 239.238,118.833 238.890,118.941 238.609 C 119.049 238.329,118.874 237.594,118.554 236.976 C 118.233 236.358,118.053 235.638,118.154 235.376 C 118.254 235.114,118.081 234.407,117.768 233.804 C 117.456 233.202,117.200 232.290,117.200 231.778 C 117.200 231.266,117.020 230.736,116.800 230.600 C 116.580 230.464,116.400 229.834,116.400 229.200 C 116.400 228.566,116.220 227.936,116.000 227.800 C 115.780 227.664,115.600 226.944,115.600 226.200 C 115.600 225.456,115.404 224.726,115.165 224.578 C 114.926 224.431,114.817 223.978,114.923 223.573 C 115.029 223.169,114.870 222.514,114.570 222.119 C 114.271 221.723,114.020 220.851,114.013 220.180 C 114.006 219.509,113.814 218.774,113.587 218.547 C 111.920 216.880,112.762 216.800,131.997 216.800 L 150.308 216.800 150.971 217.811 M281.530 280.916 C 281.905 281.368,277.724 310.008,277.004 311.923 C 276.874 312.270,276.234 312.405,275.104 312.323 L 273.400 312.200 273.454 310.600 C 273.484 309.720,274.068 305.490,274.752 301.200 C 275.436 296.910,276.434 290.628,276.970 287.241 C 277.559 283.518,278.153 280.949,278.472 280.747 C 279.275 280.238,281.049 280.336,281.530 280.916 M293.368 285.700 C 293.197 287.075,293.044 288.650,293.028 289.200 L 293.000 290.200 299.300 290.310 C 305.536 290.419,305.600 290.429,305.600 291.321 C 305.600 293.748,304.909 294.000,298.240 294.000 L 292.125 294.000 291.263 299.371 C 290.014 307.144,290.083 308.009,292.029 309.015 C 294.393 310.238,297.755 309.197,299.918 306.573 L 301.180 305.042 302.590 305.715 C 307.904 308.249,296.395 314.916,290.586 312.670 C 286.248 310.992,285.683 309.053,287.028 300.463 C 287.562 297.047,288.000 294.196,288.000 294.127 C 288.000 294.057,286.755 294.000,285.233 294.000 C 281.764 294.000,281.198 293.783,281.206 292.457 C 281.217 290.660,281.623 290.442,285.202 290.318 L 288.578 290.200 289.079 287.202 C 289.635 283.869,290.176 283.200,292.316 283.200 L 293.679 283.200 293.368 285.700 M234.262 290.416 C 235.592 290.865,237.338 291.836,238.143 292.573 C 238.948 293.310,239.671 293.798,239.751 293.657 C 239.830 293.516,240.113 292.725,240.378 291.900 C 240.832 290.492,240.962 290.400,242.487 290.400 L 244.112 290.400 243.885 292.596 C 243.485 296.478,241.154 310.980,240.832 311.600 C 239.942 313.310,237.087 312.263,237.467 310.365 C 237.756 308.922,237.665 308.923,235.356 310.387 C 225.681 316.523,212.400 312.223,212.400 302.955 C 212.400 293.532,223.921 286.924,234.262 290.416 M250.626 290.923 C 250.736 291.211,250.450 293.776,249.990 296.623 C 248.168 307.902,250.023 310.629,258.554 309.215 C 265.128 308.125,267.382 305.249,268.909 296.000 L 269.800 290.600 271.700 290.478 C 274.033 290.328,274.003 289.246,272.015 301.767 C 270.352 312.235,270.262 312.483,268.200 312.304 C 267.096 312.208,266.990 312.065,266.878 310.519 L 266.756 308.839 264.962 310.208 C 257.923 315.581,246.721 313.552,245.170 306.623 C 244.697 304.507,246.133 292.204,247.021 290.767 C 247.375 290.194,250.396 290.325,250.626 290.923 M224.200 293.737 C 213.532 297.259,213.840 308.564,224.629 309.466 C 234.203 310.268,241.891 302.425,237.532 296.304 C 235.654 293.667,228.555 292.300,224.200 293.737 " stroke="none" fill="#fbfbfb" fill-rule="evenodd"></path><path id="path2" d="M278.070 161.100 C 277.829 162.365,277.444 164.615,277.216 166.100 C 276.987 167.585,276.613 170.015,276.384 171.500 C 276.156 172.985,275.807 175.190,275.609 176.400 C 275.412 177.610,275.042 179.950,274.787 181.600 C 274.533 183.250,274.145 185.564,273.925 186.743 C 273.466 189.202,273.801 189.837,275.353 189.447 C 276.150 189.248,276.412 188.875,276.587 187.697 C 276.710 186.874,276.979 185.120,277.185 183.800 C 277.391 182.480,277.755 180.140,277.995 178.600 C 278.235 177.060,278.593 174.810,278.791 173.600 C 278.988 172.390,279.357 170.050,279.611 168.400 C 279.864 166.750,280.236 164.536,280.436 163.480 C 281.130 159.819,280.960 158.800,279.655 158.800 C 278.578 158.800,278.483 158.938,278.070 161.100 M191.134 160.155 C 189.838 160.798,189.622 162.969,190.792 163.596 C 192.467 164.492,194.318 162.922,193.838 161.011 C 193.559 159.899,192.395 159.530,191.134 160.155 M207.600 167.982 C 205.261 168.339,202.964 169.345,201.123 170.818 C 199.250 172.318,199.269 172.323,199.123 170.300 C 199.014 168.788,198.890 168.600,198.004 168.600 C 196.919 168.600,196.694 169.332,195.610 176.400 C 194.970 180.574,194.514 183.374,193.989 186.350 C 193.484 189.220,193.760 189.847,195.353 189.447 C 196.110 189.257,196.416 188.867,196.568 187.897 C 196.680 187.184,196.971 185.250,197.216 183.600 C 198.397 175.630,199.982 173.013,204.919 170.883 C 206.393 170.247,212.159 170.259,213.301 170.900 C 216.232 172.546,216.556 174.624,215.155 182.800 C 214.296 187.817,214.402 189.400,215.596 189.400 C 216.708 189.400,217.094 188.284,218.017 182.400 C 219.371 173.764,222.675 170.413,229.841 170.404 C 235.527 170.397,237.429 172.720,236.435 178.456 C 235.425 184.279,235.240 185.432,234.981 187.528 L 234.717 189.657 236.050 189.528 C 237.516 189.387,237.393 189.716,238.423 183.200 C 239.840 174.235,239.774 172.682,237.882 170.527 C 234.397 166.558,225.745 166.980,220.902 171.356 C 218.943 173.125,219.128 173.135,217.847 171.199 C 216.113 168.579,212.049 167.303,207.600 167.982 M256.388 167.983 C 253.736 168.334,249.611 170.111,248.362 171.440 C 246.899 172.998,246.248 172.712,246.533 170.638 C 246.786 168.788,246.298 168.157,244.997 168.657 C 244.376 168.895,244.200 169.435,243.843 172.200 C 243.647 173.710,243.249 176.280,242.354 181.800 C 242.140 183.120,241.800 185.280,241.599 186.600 C 241.397 187.920,241.011 190.350,240.740 192.000 C 239.957 196.770,240.031 198.176,241.073 198.324 C 242.129 198.475,242.683 197.567,243.014 195.150 C 243.145 194.188,243.410 192.590,243.603 191.600 C 243.796 190.610,244.060 188.990,244.189 188.000 C 244.566 185.106,244.925 184.859,246.365 186.499 C 252.208 193.154,267.067 190.340,270.809 181.870 C 274.577 173.342,267.484 166.512,256.388 167.983 M293.942 167.995 C 281.411 169.606,276.951 184.180,287.600 188.717 C 293.885 191.395,307.169 189.273,308.675 185.349 C 309.283 183.766,307.804 183.478,305.553 184.743 C 297.027 189.531,284.800 187.553,284.800 181.386 L 284.800 180.000 296.800 180.000 L 308.800 180.000 308.800 177.384 C 308.800 171.604,302.966 166.954,296.600 167.660 C 296.380 167.685,295.184 167.836,293.942 167.995 M189.617 169.168 C 189.377 169.617,189.012 171.203,188.807 172.692 C 188.441 175.349,188.153 177.189,187.163 183.200 C 186.380 187.959,186.441 189.377,187.435 189.519 C 188.655 189.694,189.133 188.871,189.610 185.769 C 189.844 184.246,190.200 181.920,190.401 180.600 C 190.603 179.280,190.991 176.850,191.263 175.200 C 192.061 170.367,191.974 168.625,190.927 168.476 C 190.371 168.397,189.896 168.648,189.617 169.168 M263.800 170.896 C 271.027 173.495,270.405 183.091,262.800 186.315 C 251.947 190.917,241.530 184.174,246.758 175.931 C 249.825 171.095,257.800 168.739,263.800 170.896 M301.400 170.901 C 304.889 172.176,307.919 176.932,305.767 177.757 C 304.309 178.317,285.583 178.022,285.359 177.436 C 283.726 173.181,295.033 168.575,301.400 170.901 M278.619 281.700 C 278.432 282.297,277.447 288.202,276.400 295.000 C 276.163 296.540,275.807 298.790,275.609 300.000 C 275.412 301.210,275.043 303.550,274.789 305.200 C 274.535 306.850,274.187 308.958,274.015 309.885 C 273.653 311.845,273.745 312.000,275.279 312.000 C 276.598 312.000,276.559 312.089,277.185 307.600 C 277.445 305.730,277.813 303.300,278.003 302.200 C 278.327 300.319,278.515 299.137,279.595 292.200 C 279.835 290.660,280.198 288.410,280.402 287.200 C 280.605 285.990,280.879 284.145,281.011 283.100 L 281.249 281.200 280.012 281.200 C 279.332 281.200,278.705 281.425,278.619 281.700 M290.233 284.346 C 290.116 284.536,289.901 285.751,289.755 287.046 C 289.348 290.669,289.217 290.800,286.019 290.800 C 282.625 290.800,282.000 291.025,282.000 292.243 C 282.000 293.172,282.093 293.200,285.176 293.200 C 288.835 293.200,288.929 293.277,288.444 295.867 C 286.543 306.017,286.498 308.621,288.189 310.388 C 291.364 313.704,297.965 313.134,301.900 309.203 C 303.299 307.806,303.472 307.232,302.720 306.480 C 302.164 305.924,300.800 305.833,300.800 306.353 C 300.800 307.163,298.128 309.226,296.285 309.838 C 291.634 311.383,288.678 308.282,289.957 303.200 C 290.151 302.430,290.524 300.180,290.786 298.200 C 291.470 293.037,290.881 293.432,298.243 293.200 L 304.600 293.000 304.600 292.000 L 304.600 291.000 298.400 290.800 L 292.200 290.600 292.263 289.600 C 292.298 289.050,292.458 287.565,292.619 286.300 L 292.912 284.000 291.680 284.000 C 291.002 284.000,290.351 284.156,290.233 284.346 M225.600 290.384 C 213.250 292.148,208.240 306.050,218.200 310.918 C 224.135 313.818,232.204 312.761,236.888 308.470 C 238.159 307.306,238.463 307.675,238.302 310.185 C 238.228 311.332,238.365 311.801,238.800 311.884 C 239.947 312.104,240.466 311.299,240.814 308.757 C 241.007 307.351,241.340 305.120,241.554 303.800 C 243.543 291.528,243.531 291.640,242.896 291.114 C 242.186 290.525,241.053 291.158,240.878 292.243 C 240.419 295.079,239.660 295.687,238.672 294.013 C 237.100 291.353,230.890 289.628,225.600 290.384 M247.457 291.500 C 247.349 291.885,247.051 293.550,246.795 295.200 C 246.539 296.850,246.165 299.064,245.965 300.120 C 245.309 303.573,245.509 306.729,246.496 308.485 C 249.276 313.432,258.900 313.992,264.771 309.548 C 267.407 307.553,267.666 307.586,267.520 309.900 C 267.260 314.016,269.793 312.473,270.387 308.154 C 270.764 305.416,271.090 303.333,272.040 297.600 C 272.884 292.503,272.787 291.000,271.613 291.000 C 270.473 291.000,270.052 292.215,269.187 298.000 C 267.928 306.418,264.286 309.768,256.370 309.789 C 248.879 309.808,247.194 306.900,249.191 297.400 C 249.376 296.520,249.652 294.675,249.803 293.300 L 250.079 290.800 248.866 290.800 C 248.053 290.800,247.589 291.031,247.457 291.500 M234.512 293.389 C 241.512 296.314,240.646 305.183,233.012 308.747 C 223.178 313.339,213.113 307.407,216.596 299.071 C 218.775 293.856,228.357 290.817,234.512 293.389 " stroke="none" fill="#141414" fill-rule="evenodd"></path><path id="path3" d="M278.014 159.174 C 277.786 159.599,277.622 160.454,277.648 161.074 C 277.688 162.004,277.767 161.905,278.105 160.500 C 278.468 158.992,278.643 158.800,279.657 158.800 C 280.729 158.800,280.803 158.906,280.841 160.500 L 280.882 162.200 281.227 160.800 C 281.814 158.420,279.141 157.067,278.014 159.174 M190.400 160.000 C 189.124 161.276,189.524 164.030,190.980 163.988 C 191.211 163.981,191.085 163.792,190.700 163.568 C 189.836 163.065,189.774 161.086,190.601 160.399 C 192.753 158.613,195.175 161.225,193.200 163.200 C 192.760 163.640,192.605 164.000,192.856 164.000 C 193.563 164.000,194.373 162.710,194.387 161.562 C 194.413 159.450,191.925 158.475,190.400 160.000 M280.218 164.326 C 280.053 165.495,280.013 166.546,280.129 166.662 C 280.414 166.947,280.931 163.387,280.700 162.725 C 280.600 162.436,280.382 163.157,280.218 164.326 M276.988 164.538 C 276.839 165.535,276.799 166.586,276.900 166.875 C 277.000 167.164,277.218 166.443,277.382 165.274 C 277.547 164.105,277.587 163.054,277.471 162.938 C 277.355 162.822,277.138 163.542,276.988 164.538 M207.000 167.575 C 206.520 167.766,207.722 167.889,210.000 167.882 C 212.293 167.876,213.403 167.754,212.800 167.576 C 211.460 167.179,207.994 167.179,207.000 167.575 M227.600 167.583 C 226.970 167.775,227.931 167.892,230.200 167.901 C 237.168 167.928,239.905 170.635,239.399 177.000 C 239.226 179.176,239.249 179.269,239.643 178.000 C 241.738 171.264,234.915 165.363,227.600 167.583 M254.957 167.764 C 252.758 168.298,250.047 169.588,248.415 170.878 L 247.400 171.680 247.200 169.940 C 246.973 167.965,244.409 167.174,244.062 168.972 C 243.921 169.704,243.949 169.708,244.608 169.049 C 244.991 168.667,245.565 168.454,245.884 168.577 C 246.204 168.700,246.537 168.800,246.625 168.800 C 246.713 168.800,246.674 169.610,246.538 170.600 C 246.248 172.714,246.889 173.009,248.362 171.440 C 250.550 169.112,256.597 167.460,261.543 167.840 C 263.155 167.964,263.571 167.905,263.000 167.635 C 261.875 167.102,257.386 167.174,254.957 167.764 M293.400 167.635 C 292.831 167.904,293.263 167.962,294.894 167.836 C 303.386 167.181,308.800 170.898,308.800 177.384 L 308.800 180.000 296.800 180.000 C 287.467 180.000,284.800 180.111,284.800 180.500 C 284.799 181.512,308.042 180.984,308.900 179.953 C 310.973 177.461,308.247 170.990,304.254 168.924 C 301.285 167.388,295.399 166.689,293.400 167.635 M279.411 169.275 C 279.249 170.306,279.202 171.386,279.306 171.675 C 279.410 171.964,279.627 171.356,279.789 170.325 C 279.951 169.294,279.998 168.214,279.894 167.925 C 279.790 167.636,279.573 168.244,279.411 169.275 M189.280 168.480 C 189.016 168.744,188.810 169.509,188.823 170.180 L 188.845 171.400 189.323 170.000 C 190.054 167.854,191.719 167.978,192.008 170.200 L 192.217 171.800 192.493 170.238 C 192.879 168.057,190.826 166.934,189.280 168.480 M196.400 169.001 C 196.180 169.579,196.017 170.625,196.038 171.326 C 196.071 172.400,196.150 172.286,196.541 170.600 C 197.193 167.795,198.927 167.593,199.123 170.300 C 199.268 172.302,199.310 172.317,200.942 170.937 C 201.634 170.352,203.100 169.462,204.200 168.960 C 205.300 168.457,205.973 168.036,205.696 168.023 C 204.880 167.986,201.737 169.586,200.977 170.426 C 199.966 171.543,199.664 171.392,199.524 169.700 C 199.359 167.704,197.086 167.195,196.400 169.001 M214.000 168.195 C 214.000 168.302,214.618 168.648,215.373 168.963 C 216.152 169.289,217.214 170.243,217.827 171.169 C 219.130 173.139,218.941 173.127,220.903 171.355 C 221.783 170.560,223.424 169.490,224.551 168.978 C 225.678 168.465,226.397 168.036,226.149 168.023 C 225.271 167.978,222.880 169.186,220.989 170.630 L 219.073 172.092 218.345 171.146 C 217.945 170.626,217.614 170.098,217.609 169.974 C 217.589 169.479,214.000 167.709,214.000 168.195 M264.400 168.400 C 264.730 168.613,265.270 168.788,265.600 168.788 C 266.133 168.788,266.133 168.745,265.600 168.400 C 265.270 168.187,264.730 168.012,264.400 168.012 C 263.867 168.012,263.867 168.055,264.400 168.400 M276.188 169.738 C 276.039 170.735,275.999 171.786,276.100 172.075 C 276.200 172.364,276.418 171.643,276.582 170.474 C 276.747 169.305,276.787 168.254,276.671 168.138 C 276.555 168.022,276.338 168.742,276.188 169.738 M288.980 168.965 C 285.634 170.487,281.575 174.791,281.611 176.778 C 281.617 177.120,282.022 176.630,282.511 175.688 C 284.187 172.461,287.077 170.091,291.178 168.580 C 292.051 168.259,292.291 168.054,291.800 168.051 C 291.360 168.048,290.091 168.460,288.980 168.965 M267.183 169.521 C 269.516 171.132,270.405 172.159,271.158 174.118 C 271.598 175.263,271.968 175.907,271.979 175.549 C 272.049 173.374,268.279 168.713,266.538 168.821 C 266.352 168.833,266.643 169.148,267.183 169.521 M204.333 171.165 C 201.127 172.768,198.364 175.789,198.416 177.635 C 198.425 177.946,198.788 177.487,199.223 176.615 C 200.763 173.527,202.925 171.870,206.600 170.962 C 208.452 170.505,208.496 170.467,207.200 170.450 C 206.430 170.440,205.140 170.762,204.333 171.165 M212.200 171.041 C 215.093 172.098,215.406 172.701,215.355 177.116 C 215.328 179.439,215.432 180.598,215.615 180.000 C 216.096 178.423,216.047 174.035,215.537 173.082 C 214.709 171.535,212.958 170.383,211.505 170.428 C 210.848 170.449,211.038 170.616,212.200 171.041 M224.800 171.231 C 221.378 172.776,218.322 177.040,218.432 180.115 C 218.449 180.602,218.521 180.820,218.592 180.600 C 218.663 180.380,219.025 179.210,219.396 178.000 C 220.589 174.116,222.925 171.943,226.963 170.963 C 228.536 170.581,228.727 170.462,227.800 170.443 C 227.140 170.429,225.790 170.783,224.800 171.231 M232.452 170.870 C 235.128 171.583,236.124 173.114,236.104 176.485 C 236.092 178.472,236.188 179.082,236.403 178.400 C 237.629 174.532,235.294 170.312,232.000 170.443 C 231.194 170.475,231.281 170.558,232.452 170.870 M243.411 172.075 C 243.249 173.106,243.202 174.186,243.306 174.475 C 243.410 174.764,243.627 174.156,243.789 173.125 C 243.951 172.094,243.998 171.014,243.894 170.725 C 243.790 170.436,243.573 171.044,243.411 172.075 M252.677 171.189 C 249.017 172.619,245.561 176.339,245.628 178.778 C 245.648 179.532,245.803 179.321,246.219 177.971 C 247.117 175.058,251.606 171.279,254.296 171.172 C 254.683 171.156,255.360 170.989,255.800 170.800 C 257.509 170.066,254.636 170.423,252.677 171.189 M262.722 171.021 C 265.436 171.874,267.051 173.077,267.939 174.907 C 268.391 175.838,268.769 176.366,268.780 176.080 C 268.866 173.831,264.547 170.314,261.851 170.440 C 261.339 170.463,261.686 170.695,262.722 171.021 M290.800 171.251 C 287.841 172.558,284.809 176.004,285.359 177.436 C 285.583 178.022,304.309 178.317,305.767 177.757 C 308.575 176.680,303.165 170.358,299.481 170.413 C 298.997 170.420,299.588 170.767,300.796 171.184 C 303.632 172.163,305.600 174.215,305.600 176.194 L 305.600 177.600 295.824 177.600 C 289.935 177.600,285.952 177.446,285.807 177.212 C 284.959 175.839,288.406 172.608,292.090 171.326 C 293.599 170.800,294.201 170.452,293.600 170.454 C 293.050 170.455,291.790 170.814,290.800 171.251 M188.211 173.675 C 188.049 174.706,188.002 175.786,188.106 176.075 C 188.210 176.364,188.427 175.756,188.589 174.725 C 188.751 173.694,188.798 172.614,188.694 172.325 C 188.590 172.036,188.373 172.644,188.211 173.675 M191.418 173.926 C 191.253 175.095,191.213 176.146,191.329 176.262 C 191.614 176.547,192.131 172.987,191.900 172.325 C 191.800 172.036,191.582 172.757,191.418 173.926 M195.418 174.726 C 195.253 175.895,195.213 176.946,195.329 177.062 C 195.614 177.347,196.131 173.787,195.900 173.125 C 195.800 172.836,195.582 173.557,195.418 174.726 M275.411 174.475 C 275.249 175.506,275.202 176.586,275.306 176.875 C 275.410 177.164,275.627 176.556,275.789 175.525 C 275.951 174.494,275.998 173.414,275.894 173.125 C 275.790 172.836,275.573 173.444,275.411 174.475 M278.588 174.538 C 278.439 175.535,278.399 176.586,278.500 176.875 C 278.600 177.164,278.818 176.443,278.982 175.274 C 279.147 174.105,279.187 173.054,279.071 172.938 C 278.955 172.822,278.738 173.542,278.588 174.538 M242.588 177.338 C 242.439 178.335,242.399 179.386,242.500 179.675 C 242.600 179.964,242.818 179.243,242.982 178.074 C 243.147 176.905,243.187 175.854,243.071 175.738 C 242.955 175.622,242.738 176.342,242.588 177.338 M187.388 178.938 C 187.239 179.935,187.199 180.986,187.300 181.275 C 187.400 181.564,187.618 180.843,187.782 179.674 C 187.947 178.505,187.987 177.454,187.871 177.338 C 187.755 177.222,187.538 177.942,187.388 178.938 M190.611 178.875 C 190.449 179.906,190.402 180.986,190.506 181.275 C 190.610 181.564,190.827 180.956,190.989 179.925 C 191.151 178.894,191.198 177.814,191.094 177.525 C 190.990 177.236,190.773 177.844,190.611 178.875 M277.818 179.526 C 277.653 180.695,277.613 181.746,277.729 181.862 C 278.014 182.147,278.531 178.587,278.300 177.925 C 278.200 177.636,277.982 178.357,277.818 179.526 M281.081 178.978 C 280.958 179.736,281.009 180.861,281.194 181.478 C 281.465 182.380,281.538 182.109,281.566 180.100 C 281.604 177.319,281.420 176.892,281.081 178.978 M194.611 179.675 C 194.449 180.706,194.402 181.786,194.506 182.075 C 194.610 182.364,194.827 181.756,194.989 180.725 C 195.151 179.694,195.198 178.614,195.094 178.325 C 194.990 178.036,194.773 178.644,194.611 179.675 M274.611 179.675 C 274.449 180.706,274.402 181.786,274.506 182.075 C 274.610 182.364,274.827 181.756,274.989 180.725 C 275.151 179.694,275.198 178.614,275.094 178.325 C 274.990 178.036,274.773 178.644,274.611 179.675 M197.889 179.200 C 197.736 179.750,197.627 180.740,197.646 181.400 C 197.677 182.492,197.714 182.458,198.052 181.011 C 198.475 179.206,198.331 177.611,197.889 179.200 M271.651 179.200 C 271.465 181.909,268.109 186.487,265.352 187.796 C 264.573 188.166,264.023 188.556,264.130 188.664 C 265.615 190.148,272.308 182.026,271.882 179.257 L 271.720 178.200 271.651 179.200 M268.063 180.349 C 267.449 182.396,265.666 184.488,263.765 185.390 C 262.979 185.763,262.423 186.156,262.530 186.264 C 263.678 187.411,269.315 180.944,268.721 179.162 C 268.633 178.899,268.337 179.433,268.063 180.349 M235.388 181.738 C 235.239 182.735,235.199 183.786,235.300 184.075 C 235.400 184.364,235.618 183.643,235.782 182.474 C 235.947 181.305,235.987 180.254,235.871 180.138 C 235.755 180.022,235.538 180.742,235.388 181.738 M238.588 181.738 C 238.439 182.735,238.399 183.786,238.500 184.075 C 238.600 184.364,238.818 183.643,238.982 182.474 C 239.147 181.305,239.187 180.254,239.071 180.138 C 238.955 180.022,238.738 180.742,238.588 181.738 M241.811 182.075 C 241.649 183.106,241.602 184.186,241.706 184.475 C 241.810 184.764,242.027 184.156,242.189 183.125 C 242.351 182.094,242.398 181.014,242.294 180.725 C 242.190 180.436,241.973 181.044,241.811 182.075 M245.632 181.720 C 245.549 183.612,249.236 187.242,251.178 187.180 C 251.520 187.169,251.061 186.802,250.159 186.363 C 248.192 185.408,246.652 183.836,246.081 182.200 C 245.830 181.478,245.651 181.287,245.632 181.720 M214.588 183.338 C 214.439 184.335,214.399 185.386,214.500 185.675 C 214.600 185.964,214.818 185.243,214.982 184.074 C 215.147 182.905,215.187 181.854,215.071 181.738 C 214.955 181.622,214.738 182.342,214.588 183.338 M217.782 183.382 C 217.629 184.402,217.602 185.335,217.722 185.455 C 217.842 185.575,218.065 184.839,218.218 183.818 C 218.371 182.798,218.398 181.865,218.278 181.745 C 218.158 181.625,217.935 182.361,217.782 183.382 M284.816 182.169 C 284.799 183.008,288.111 186.414,288.907 186.376 C 289.178 186.364,289.066 186.139,288.657 185.876 C 286.772 184.668,285.865 183.774,285.369 182.634 C 284.990 181.764,284.827 181.627,284.816 182.169 M186.618 183.926 C 186.453 185.095,186.413 186.146,186.529 186.262 C 186.814 186.547,187.331 182.987,187.100 182.325 C 187.000 182.036,186.782 182.757,186.618 183.926 M189.788 184.138 C 189.639 185.135,189.599 186.186,189.700 186.475 C 189.800 186.764,190.018 186.043,190.182 184.874 C 190.347 183.705,190.387 182.654,190.271 182.538 C 190.155 182.422,189.938 183.142,189.788 184.138 M197.018 184.726 C 196.853 185.895,196.813 186.946,196.929 187.062 C 197.214 187.347,197.731 183.787,197.500 183.125 C 197.400 182.836,197.182 183.557,197.018 184.726 M277.011 184.475 C 276.849 185.506,276.802 186.586,276.906 186.875 C 277.010 187.164,277.227 186.556,277.389 185.525 C 277.551 184.494,277.598 183.414,277.494 183.125 C 277.390 182.836,277.173 183.444,277.011 184.475 M281.616 183.269 C 281.555 185.821,287.582 189.991,291.708 190.251 L 293.800 190.382 291.400 189.867 C 286.826 188.884,283.921 186.955,282.263 183.800 C 281.871 183.055,281.626 182.853,281.616 183.269 M193.788 184.938 C 193.639 185.935,193.599 186.986,193.700 187.275 C 193.800 187.564,194.018 186.843,194.182 185.674 C 194.347 184.505,194.387 183.454,194.271 183.338 C 194.155 183.222,193.938 183.942,193.788 184.938 M273.788 184.938 C 273.639 185.935,273.599 186.986,273.700 187.275 C 273.800 187.564,274.018 186.843,274.182 185.674 C 274.347 184.505,274.387 183.454,274.271 183.338 C 274.155 183.222,273.938 183.942,273.788 184.938 M306.200 183.858 C 305.760 184.206,304.500 184.910,303.400 185.422 C 302.300 185.935,301.655 186.364,301.967 186.377 C 302.279 186.390,303.701 185.759,305.127 184.974 C 307.422 183.713,307.789 183.617,308.315 184.143 C 309.963 185.791,305.164 188.590,298.600 189.808 C 296.283 190.238,296.076 190.333,297.400 190.361 C 300.198 190.419,306.066 188.268,308.557 186.272 C 309.699 185.356,309.705 185.332,309.011 184.272 C 308.216 183.060,307.368 182.935,306.200 183.858 M234.585 186.985 C 234.430 188.223,234.400 189.334,234.519 189.452 C 234.637 189.570,234.861 188.654,235.015 187.415 C 235.170 186.177,235.200 185.066,235.081 184.948 C 234.963 184.830,234.739 185.746,234.585 186.985 M237.742 187.088 C 237.523 188.447,237.481 189.473,237.649 189.370 C 238.028 189.135,238.545 185.834,238.311 185.134 C 238.217 184.851,237.961 185.730,237.742 187.088 M244.392 186.831 C 244.150 187.728,244.022 188.853,244.108 189.331 C 244.198 189.835,244.397 189.319,244.583 188.100 C 244.903 185.999,245.312 185.472,245.745 186.601 C 246.033 187.353,249.540 189.607,250.378 189.580 C 250.720 189.569,250.237 189.190,249.304 188.738 C 248.371 188.285,247.072 187.304,246.416 186.558 C 244.925 184.859,244.922 184.860,244.392 186.831 M241.011 187.275 C 240.849 188.306,240.802 189.386,240.906 189.675 C 241.010 189.964,241.227 189.356,241.389 188.325 C 241.551 187.294,241.598 186.214,241.494 185.925 C 241.390 185.636,241.173 186.244,241.011 187.275 M213.904 187.779 C 213.618 189.394,213.702 189.791,214.275 189.542 C 214.454 189.464,214.506 188.680,214.392 187.800 L 214.183 186.200 213.904 187.779 M216.956 187.905 C 216.711 188.837,216.672 189.600,216.868 189.600 C 217.392 189.600,217.678 188.625,217.530 187.339 C 217.411 186.309,217.361 186.359,216.956 187.905 M260.200 186.800 L 259.400 187.144 260.200 187.166 C 260.640 187.178,261.270 187.013,261.600 186.800 C 262.395 186.286,261.396 186.286,260.200 186.800 M290.000 186.800 C 290.330 187.013,291.050 187.173,291.600 187.154 L 292.600 187.120 291.600 186.800 C 290.058 186.306,289.236 186.306,290.000 186.800 M298.800 186.800 C 297.820 187.114,297.824 187.121,299.000 187.154 C 299.660 187.173,300.470 187.013,300.800 186.800 C 301.558 186.310,300.330 186.310,298.800 186.800 M185.935 188.110 C 185.810 188.720,185.875 189.323,186.080 189.450 C 186.620 189.783,186.681 189.548,186.406 188.200 L 186.162 187.000 185.935 188.110 M189.200 187.920 C 189.200 188.316,188.984 188.856,188.720 189.120 C 188.347 189.493,188.391 189.600,188.920 189.600 C 189.409 189.600,189.600 189.263,189.600 188.400 C 189.600 187.740,189.510 187.200,189.400 187.200 C 189.290 187.200,189.200 187.524,189.200 187.920 M253.700 187.691 C 254.954 187.952,256.246 187.952,257.500 187.691 C 259.260 187.324,259.120 187.295,255.600 187.295 C 252.080 187.295,251.940 187.324,253.700 187.691 M293.700 187.487 C 294.305 187.578,295.295 187.578,295.900 187.487 C 296.505 187.395,296.010 187.320,294.800 187.320 C 293.590 187.320,293.095 187.395,293.700 187.487 M196.400 188.567 C 196.400 188.878,196.175 189.224,195.900 189.335 C 195.601 189.456,195.682 189.550,196.100 189.568 C 196.544 189.588,196.800 189.307,196.800 188.800 C 196.800 188.360,196.710 188.000,196.600 188.000 C 196.490 188.000,196.400 188.255,196.400 188.567 M276.400 188.567 C 276.400 188.878,276.175 189.224,275.900 189.335 C 275.601 189.456,275.682 189.550,276.100 189.568 C 276.544 189.588,276.800 189.307,276.800 188.800 C 276.800 188.360,276.710 188.000,276.600 188.000 C 276.490 188.000,276.400 188.255,276.400 188.567 M251.600 189.979 C 251.930 190.204,252.725 190.391,253.367 190.394 C 254.904 190.402,254.584 190.170,252.600 189.838 C 251.454 189.646,251.170 189.686,251.600 189.979 M258.400 190.000 L 257.000 190.295 258.600 190.319 C 259.480 190.333,260.560 190.189,261.000 190.000 C 262.042 189.552,260.526 189.552,258.400 190.000 M240.188 192.538 C 240.039 193.535,239.999 194.586,240.100 194.875 C 240.200 195.164,240.418 194.443,240.582 193.274 C 240.747 192.105,240.787 191.054,240.671 190.938 C 240.555 190.822,240.338 191.542,240.188 192.538 M243.388 192.538 C 243.239 193.535,243.199 194.586,243.300 194.875 C 243.400 195.164,243.618 194.443,243.782 193.274 C 243.947 192.105,243.987 191.054,243.871 190.938 C 243.755 190.822,243.538 191.542,243.388 192.538 M239.486 196.764 C 239.188 198.158,239.296 198.593,239.879 198.342 C 240.059 198.264,240.110 197.570,239.992 196.800 L 239.777 195.400 239.486 196.764 M242.560 196.966 C 242.318 197.755,242.278 198.400,242.472 198.400 C 242.966 198.400,243.288 197.420,243.132 196.395 C 243.027 195.708,242.911 195.823,242.560 196.966 M277.992 282.431 C 277.750 283.328,277.618 284.453,277.698 284.931 C 277.781 285.428,278.006 284.858,278.223 283.600 C 278.586 281.500,278.663 281.394,279.908 281.274 L 281.213 281.148 281.013 283.474 C 280.872 285.103,280.918 285.500,281.166 284.800 C 282.113 282.126,281.731 280.800,280.015 280.800 C 278.500 280.800,278.412 280.871,277.992 282.431 M290.700 283.665 C 289.798 283.994,289.609 284.295,289.647 285.333 L 289.695 286.600 289.949 285.400 C 290.356 283.480,292.785 283.375,292.834 285.275 L 292.869 286.600 293.232 285.400 C 293.879 283.267,293.152 282.769,290.700 283.665 M277.011 288.075 C 276.849 289.106,276.802 290.186,276.906 290.475 C 277.010 290.764,277.227 290.156,277.389 289.125 C 277.551 288.094,277.598 287.014,277.494 286.725 C 277.390 286.436,277.173 287.044,277.011 288.075 M280.188 288.138 C 280.039 289.135,279.999 290.186,280.100 290.475 C 280.200 290.764,280.418 290.043,280.582 288.874 C 280.747 287.705,280.787 286.654,280.671 286.538 C 280.555 286.422,280.338 287.142,280.188 288.138 M289.072 288.485 L 288.756 290.370 285.278 290.485 L 281.800 290.600 281.676 292.100 L 281.552 293.600 284.776 293.600 L 288.000 293.600 288.041 295.300 L 288.082 297.000 288.427 295.600 C 288.981 293.356,288.772 293.200,285.213 293.200 C 282.091 293.200,282.000 293.173,282.000 292.243 C 282.000 291.025,282.625 290.800,286.019 290.800 C 289.125 290.800,289.760 290.271,289.519 287.882 C 289.402 286.725,289.359 286.783,289.072 288.485 M292.217 288.652 C 291.829 290.716,291.970 290.766,298.609 290.889 L 304.600 291.000 304.600 292.000 L 304.600 293.000 298.428 293.111 C 291.602 293.233,291.176 293.378,291.248 295.549 L 291.296 297.000 291.705 295.300 L 292.114 293.600 298.449 293.600 L 304.785 293.600 305.036 292.601 C 305.558 290.518,305.316 290.430,298.718 290.311 L 292.602 290.200 292.732 288.700 C 292.897 286.785,292.572 286.755,292.217 288.652 M225.200 289.975 C 224.630 290.143,226.064 290.262,228.531 290.251 C 230.914 290.241,232.534 290.103,232.131 289.944 C 231.186 289.572,226.495 289.593,225.200 289.975 M220.530 291.387 C 216.528 293.207,212.752 297.955,212.827 301.075 C 212.848 301.967,212.956 301.822,213.347 300.372 C 214.502 296.088,217.436 293.004,222.000 291.275 C 223.210 290.817,223.840 290.443,223.400 290.444 C 222.960 290.445,221.668 290.870,220.530 291.387 M235.487 291.627 C 237.042 292.381,238.236 293.276,238.673 294.017 C 239.634 295.643,240.800 294.774,240.800 292.430 C 240.800 291.339,241.914 290.550,242.729 291.064 C 243.185 291.351,243.367 291.965,243.317 293.041 L 243.243 294.600 243.662 293.095 C 244.600 289.731,241.502 289.069,240.410 292.400 C 240.085 293.390,239.777 294.268,239.726 294.350 C 239.675 294.433,239.177 293.958,238.619 293.295 C 237.643 292.135,234.547 290.389,233.504 290.410 C 233.227 290.416,234.119 290.963,235.487 291.627 M246.847 292.177 C 246.601 293.155,246.419 294.460,246.443 295.077 C 246.475 295.912,246.581 295.738,246.856 294.400 C 247.059 293.410,247.313 292.195,247.420 291.700 C 247.571 291.005,247.894 290.800,248.839 290.800 L 250.064 290.800 249.851 293.500 C 249.709 295.293,249.750 295.797,249.971 295.000 C 250.155 294.340,250.327 293.035,250.353 292.100 L 250.400 290.400 248.847 290.400 C 247.344 290.400,247.281 290.456,246.847 292.177 M270.080 290.880 C 269.816 291.144,269.614 291.999,269.631 292.780 L 269.661 294.200 270.144 292.600 C 270.812 290.381,272.487 290.255,272.812 292.400 L 273.023 293.800 273.310 292.459 C 273.734 290.474,271.552 289.408,270.080 290.880 M279.418 293.126 C 279.253 294.295,279.213 295.346,279.329 295.462 C 279.614 295.747,280.131 292.187,279.900 291.525 C 279.800 291.236,279.582 291.957,279.418 293.126 M276.188 293.338 C 276.039 294.335,275.999 295.386,276.100 295.675 C 276.200 295.964,276.418 295.243,276.582 294.074 C 276.747 292.905,276.787 291.854,276.671 291.738 C 276.555 291.622,276.338 292.342,276.188 293.338 M228.300 292.682 C 228.795 292.778,229.605 292.778,230.100 292.682 C 230.595 292.587,230.190 292.509,229.200 292.509 C 228.210 292.509,227.805 292.587,228.300 292.682 M224.000 293.200 C 223.213 293.709,224.616 293.709,225.800 293.200 C 226.533 292.885,226.516 292.854,225.600 292.834 C 225.050 292.822,224.330 292.987,224.000 293.200 M233.070 293.376 C 236.495 294.447,238.215 296.102,238.914 299.000 C 239.085 299.710,239.112 299.696,239.154 298.880 C 239.285 296.274,235.247 292.733,232.251 292.827 C 231.751 292.842,232.089 293.069,233.070 293.376 M220.400 294.869 C 218.518 296.170,216.801 297.936,216.800 298.572 C 216.800 298.777,217.450 298.185,218.244 297.258 C 219.038 296.330,220.523 295.136,221.544 294.604 C 222.565 294.072,223.130 293.635,222.800 293.631 C 222.470 293.628,221.390 294.185,220.400 294.869 M268.985 296.585 C 268.830 297.823,268.800 298.934,268.919 299.052 C 269.037 299.170,269.261 298.254,269.415 297.015 C 269.570 295.777,269.600 294.666,269.481 294.548 C 269.363 294.430,269.139 295.346,268.985 296.585 M272.211 296.075 C 272.049 297.106,272.002 298.186,272.106 298.475 C 272.210 298.764,272.427 298.156,272.589 297.125 C 272.751 296.094,272.798 295.014,272.694 294.725 C 272.590 294.436,272.373 295.044,272.211 296.075 M242.611 296.875 C 242.449 297.906,242.402 298.986,242.506 299.275 C 242.610 299.564,242.827 298.956,242.989 297.925 C 243.151 296.894,243.198 295.814,243.094 295.525 C 242.990 295.236,242.773 295.844,242.611 296.875 M245.785 298.585 C 245.630 299.823,245.600 300.934,245.719 301.052 C 245.837 301.170,246.061 300.254,246.215 299.015 C 246.370 297.777,246.400 296.666,246.281 296.548 C 246.163 296.430,245.939 297.346,245.785 298.585 M249.018 298.326 C 248.853 299.495,248.813 300.546,248.929 300.662 C 249.214 300.947,249.731 297.387,249.500 296.725 C 249.400 296.436,249.182 297.157,249.018 298.326 M275.418 298.326 C 275.253 299.495,275.213 300.546,275.329 300.662 C 275.614 300.947,276.131 297.387,275.900 296.725 C 275.800 296.436,275.582 297.157,275.418 298.326 M278.611 298.075 C 278.449 299.106,278.402 300.186,278.506 300.475 C 278.610 300.764,278.827 300.156,278.989 299.125 C 279.151 298.094,279.198 297.014,279.094 296.725 C 278.990 296.436,278.773 297.044,278.611 298.075 M287.418 299.126 C 287.253 300.295,287.213 301.346,287.329 301.462 C 287.614 301.747,288.131 298.187,287.900 297.525 C 287.800 297.236,287.582 297.957,287.418 299.126 M290.618 299.126 C 290.453 300.295,290.413 301.346,290.529 301.462 C 290.814 301.747,291.331 298.187,291.100 297.525 C 291.000 297.236,290.782 297.957,290.618 299.126 M216.273 299.753 C 216.123 300.145,216.011 300.766,216.025 301.133 C 216.042 301.575,216.181 301.474,216.437 300.834 C 216.649 300.303,216.761 299.682,216.685 299.454 C 216.609 299.227,216.424 299.361,216.273 299.753 M271.385 301.385 C 271.230 302.623,271.200 303.734,271.319 303.852 C 271.437 303.970,271.661 303.054,271.815 301.815 C 271.970 300.577,272.000 299.466,271.881 299.348 C 271.763 299.230,271.539 300.146,271.385 301.385 M268.222 300.729 C 268.058 301.459,268.022 302.156,268.142 302.276 C 268.443 302.577,268.920 300.556,268.699 299.917 C 268.601 299.633,268.386 299.998,268.222 300.729 M238.851 300.800 C 238.642 303.845,235.566 307.340,231.830 308.777 C 230.714 309.207,230.117 309.568,230.504 309.579 C 233.970 309.682,239.565 303.993,239.082 300.857 L 238.920 299.800 238.851 300.800 M241.818 301.926 C 241.653 303.095,241.613 304.146,241.729 304.262 C 242.014 304.547,242.531 300.987,242.300 300.325 C 242.200 300.036,241.982 300.757,241.818 301.926 M245.331 304.200 C 245.333 305.740,245.405 306.321,245.492 305.491 C 245.579 304.661,245.577 303.401,245.489 302.691 C 245.400 301.981,245.329 302.660,245.331 304.200 M248.520 303.600 C 248.520 304.810,248.595 305.305,248.687 304.700 C 248.778 304.095,248.778 303.105,248.687 302.500 C 248.595 301.895,248.520 302.390,248.520 303.600 M274.611 303.275 C 274.449 304.306,274.402 305.386,274.506 305.675 C 274.610 305.964,274.827 305.356,274.989 304.325 C 275.151 303.294,275.198 302.214,275.094 301.925 C 274.990 301.636,274.773 302.244,274.611 303.275 M277.788 303.338 C 277.639 304.335,277.599 305.386,277.700 305.675 C 277.800 305.964,278.018 305.243,278.182 304.074 C 278.347 302.905,278.387 301.854,278.271 301.738 C 278.155 301.622,277.938 302.342,277.788 303.338 M286.650 303.650 C 285.632 308.740,288.011 312.787,292.000 312.753 C 292.693 312.747,292.443 312.573,291.188 312.186 C 287.909 311.175,286.988 309.741,287.069 305.772 C 287.143 302.157,287.046 301.668,286.650 303.650 M289.900 303.550 C 288.913 307.994,291.813 311.405,295.453 310.081 C 296.498 309.700,296.402 309.660,294.370 309.632 C 291.234 309.587,290.481 308.725,290.320 304.996 C 290.220 302.658,290.151 302.421,289.900 303.550 M267.256 303.645 C 266.736 304.998,263.730 307.859,262.249 308.410 C 259.602 309.395,259.330 309.543,260.113 309.573 C 261.195 309.614,264.466 307.820,265.648 306.537 C 267.078 304.986,268.160 303.227,267.865 302.932 C 267.732 302.798,267.457 303.119,267.256 303.645 M216.030 304.241 C 215.963 306.105,219.656 309.635,221.600 309.565 C 221.930 309.553,221.479 309.222,220.598 308.830 C 218.623 307.950,217.181 306.494,216.545 304.736 C 216.191 303.758,216.053 303.626,216.030 304.241 M212.819 304.851 C 212.721 308.264,218.634 312.896,222.915 312.759 C 223.933 312.727,223.741 312.617,221.992 312.233 C 217.361 311.216,214.874 309.415,213.601 306.155 C 213.181 305.080,212.829 304.493,212.819 304.851 M270.611 306.075 C 270.449 307.106,270.402 308.186,270.506 308.475 C 270.610 308.764,270.827 308.156,270.989 307.125 C 271.151 306.094,271.198 305.014,271.094 304.725 C 270.990 304.436,270.773 305.044,270.611 306.075 M241.011 306.875 C 240.849 307.906,240.802 308.986,240.906 309.275 C 241.010 309.564,241.227 308.956,241.389 307.925 C 241.551 306.894,241.598 305.814,241.494 305.525 C 241.390 305.236,241.173 305.844,241.011 306.875 M300.068 306.793 C 299.583 307.450,298.632 308.273,297.956 308.623 C 297.279 308.973,296.828 309.362,296.954 309.487 C 297.306 309.840,299.910 307.916,300.452 306.903 C 301.172 305.558,303.200 305.948,303.200 307.433 C 303.200 308.694,299.659 311.273,296.600 312.240 C 295.622 312.550,295.331 312.757,295.851 312.773 C 297.895 312.837,302.349 310.033,303.385 308.030 C 304.543 305.790,301.616 304.699,300.068 306.793 M248.800 306.399 C 248.800 307.125,251.530 309.600,252.328 309.599 C 252.759 309.598,252.556 309.326,251.765 308.844 C 251.085 308.429,250.140 307.596,249.665 306.991 C 249.189 306.387,248.800 306.120,248.800 306.399 M277.018 308.326 C 276.853 309.495,276.813 310.546,276.929 310.662 C 277.214 310.947,277.731 307.387,277.500 306.725 C 277.400 306.436,277.182 307.157,277.018 308.326 M273.788 308.538 C 273.639 309.535,273.599 310.586,273.700 310.875 C 273.800 311.164,274.018 310.443,274.182 309.274 C 274.347 308.105,274.387 307.054,274.271 306.938 C 274.155 306.822,273.938 307.542,273.788 308.538 M245.604 307.609 C 245.592 309.551,250.236 312.835,252.896 312.766 C 254.031 312.736,253.940 312.669,252.195 312.245 C 249.388 311.562,247.691 310.463,246.570 308.600 C 246.041 307.720,245.606 307.274,245.604 307.609 M236.991 308.410 C 235.454 310.108,230.911 312.055,227.400 312.521 C 226.414 312.652,226.485 312.690,227.800 312.734 C 230.180 312.815,235.158 310.896,236.376 309.429 C 237.227 308.404,237.600 308.700,237.600 310.400 C 237.600 312.694,238.182 312.374,238.295 310.018 C 238.404 307.755,238.016 307.277,236.991 308.410 M264.625 309.608 C 262.815 311.023,260.089 312.044,256.800 312.540 C 256.196 312.631,256.435 312.713,257.406 312.746 C 260.028 312.835,264.390 310.939,265.985 309.019 C 266.699 308.158,267.115 308.246,267.318 309.300 C 267.466 310.072,267.499 310.043,267.546 309.100 C 267.618 307.634,267.017 307.739,264.625 309.608 M223.898 310.105 C 225.047 310.381,226.277 310.382,227.698 310.109 C 229.736 309.717,229.684 309.705,226.000 309.701 C 222.577 309.697,222.369 309.737,223.898 310.105 M254.711 309.893 C 255.651 309.978,257.091 309.977,257.911 309.891 C 258.730 309.805,257.960 309.736,256.200 309.737 C 254.440 309.739,253.770 309.809,254.711 309.893 M270.046 310.220 C 270.021 310.671,269.784 311.256,269.520 311.520 C 269.147 311.893,269.149 312.000,269.533 312.000 C 270.154 312.000,270.525 311.068,270.280 310.123 C 270.119 309.499,270.086 309.513,270.046 310.220 M240.400 310.967 C 240.400 311.278,240.175 311.624,239.900 311.735 C 239.601 311.856,239.682 311.950,240.100 311.968 C 240.544 311.988,240.800 311.707,240.800 311.200 C 240.800 310.760,240.710 310.400,240.600 310.400 C 240.490 310.400,240.400 310.655,240.400 310.967 " stroke="none" fill="#7c7c7c" fill-rule="evenodd"></path><path id="path4" d="M89.332 79.081 C 86.509 82.095,82.580 86.284,80.600 88.389 C 67.390 102.436,66.405 103.549,66.642 104.164 C 66.816 104.618,66.651 104.800,66.066 104.800 C 63.901 104.800,63.975 104.896,75.014 116.400 C 77.442 118.930,81.222 122.883,83.414 125.185 C 85.606 127.487,89.566 131.627,92.213 134.385 C 94.860 137.143,98.640 141.104,100.613 143.187 C 102.586 145.270,106.365 149.230,109.011 151.987 C 113.611 156.780,120.814 164.307,122.682 166.272 L 123.564 167.200 153.382 167.200 C 169.782 167.200,183.200 167.090,183.200 166.956 C 183.200 166.737,175.776 158.881,163.393 146.000 C 160.962 143.470,157.178 139.517,154.986 137.215 C 152.794 134.913,148.834 130.773,146.187 128.015 C 143.540 125.257,139.760 121.295,137.787 119.210 C 135.814 117.126,131.823 112.986,128.918 110.010 L 123.636 104.600 139.251 104.400 L 154.866 104.200 157.733 101.144 C 159.310 99.463,163.750 94.703,167.600 90.565 C 171.450 86.428,176.445 81.090,178.700 78.704 C 180.955 76.317,182.800 74.193,182.800 73.982 C 182.800 73.742,166.457 73.600,138.632 73.600 L 94.463 73.600 89.332 79.081 M181.144 75.100 C 176.878 79.766,155.698 102.387,154.927 103.100 L 153.955 104.000 110.778 104.000 C 81.321 104.000,67.600 103.869,67.600 103.587 C 67.600 103.222,73.584 96.726,90.157 79.100 L 94.953 74.000 138.551 74.000 L 182.150 74.000 181.144 75.100 M133.045 115.119 C 138.080 120.355,145.803 128.410,150.208 133.019 C 154.612 137.629,161.902 145.249,166.408 149.952 C 178.683 162.767,182.000 166.301,182.000 166.563 C 182.000 166.693,168.986 166.800,153.081 166.800 L 124.162 166.800 118.969 161.500 C 116.112 158.585,108.381 150.533,101.788 143.606 C 95.194 136.680,87.626 128.760,84.969 126.006 C 75.787 116.491,66.200 106.325,66.067 105.963 C 65.988 105.748,77.734 105.600,94.912 105.600 L 123.891 105.600 133.045 115.119 M189.949 163.700 C 190.314 164.165,190.985 164.379,191.949 164.336 L 193.400 164.272 192.002 164.103 C 191.232 164.011,190.332 163.724,190.002 163.467 C 189.478 163.060,189.471 163.090,189.949 163.700 M90.185 169.871 C 89.313 170.901,88.420 172.047,88.200 172.418 C 87.980 172.789,87.211 173.792,86.491 174.647 C 85.771 175.501,83.834 177.910,82.186 180.000 C 77.333 186.157,75.881 187.986,74.400 189.805 C 73.630 190.752,72.280 192.451,71.400 193.581 C 70.520 194.712,69.080 196.516,68.200 197.591 C 65.218 201.233,63.800 203.203,63.800 203.702 C 63.800 204.212,150.630 204.702,152.691 204.204 C 153.485 204.013,154.530 202.833,158.000 198.210 C 158.550 197.478,159.498 196.276,160.106 195.539 C 160.715 194.803,163.281 191.590,165.809 188.400 C 168.336 185.210,171.168 181.636,172.102 180.458 C 173.036 179.279,174.430 177.546,175.200 176.606 C 177.521 173.773,181.600 168.416,181.600 168.201 C 181.600 168.091,161.388 168.000,136.685 168.000 L 91.769 168.000 90.185 169.871 M180.318 169.100 C 179.985 169.485,177.221 172.950,174.176 176.800 C 160.009 194.708,153.027 203.424,152.631 203.694 C 152.062 204.082,64.397 204.088,64.409 203.700 C 64.414 203.535,68.210 198.630,72.846 192.800 C 77.481 186.970,83.722 179.095,86.715 175.300 L 92.156 168.400 136.540 168.400 C 178.774 168.400,180.895 168.434,180.318 169.100 M306.400 170.600 C 307.146 171.370,307.847 172.000,307.957 172.000 C 308.067 172.000,307.546 171.370,306.800 170.600 C 306.054 169.830,305.353 169.200,305.243 169.200 C 305.133 169.200,305.654 169.830,306.400 170.600 M208.900 170.676 C 209.285 170.776,209.915 170.776,210.300 170.676 C 210.685 170.575,210.370 170.493,209.600 170.493 C 208.830 170.493,208.515 170.575,208.900 170.676 M229.300 170.676 C 229.685 170.776,230.315 170.776,230.700 170.676 C 231.085 170.575,230.770 170.493,230.000 170.493 C 229.230 170.493,228.915 170.575,229.300 170.676 M257.500 170.689 C 258.215 170.778,259.385 170.778,260.100 170.689 C 260.815 170.601,260.230 170.528,258.800 170.528 C 257.370 170.528,256.785 170.601,257.500 170.689 M295.507 170.690 C 296.226 170.779,297.306 170.777,297.907 170.686 C 298.508 170.595,297.920 170.522,296.600 170.524 C 295.280 170.526,294.788 170.601,295.507 170.690 M284.175 172.100 L 283.000 173.400 284.300 172.225 C 285.015 171.579,285.600 170.994,285.600 170.925 C 285.600 170.616,285.270 170.888,284.175 172.100 M287.241 174.214 C 286.559 174.992,286.000 175.748,286.000 175.894 C 286.000 176.040,286.136 175.989,286.303 175.780 C 286.470 175.571,287.133 174.815,287.778 174.100 C 288.422 173.385,288.845 172.800,288.716 172.800 C 288.588 172.800,287.924 173.436,287.241 174.214 M272.131 177.400 C 272.133 178.940,272.205 179.521,272.292 178.691 C 272.379 177.861,272.377 176.601,272.289 175.891 C 272.200 175.181,272.129 175.860,272.131 177.400 M268.493 177.600 C 268.493 178.370,268.575 178.685,268.676 178.300 C 268.776 177.915,268.776 177.285,268.676 176.900 C 268.575 176.515,268.493 176.830,268.493 177.600 M285.703 176.800 C 285.842 177.313,287.319 177.402,295.833 177.411 L 305.800 177.422 296.019 177.304 C 288.842 177.217,286.145 177.054,285.889 176.693 C 285.634 176.334,285.584 176.363,285.703 176.800 M266.026 183.307 C 264.887 184.711,264.842 184.829,265.763 184.000 C 266.720 183.138,267.856 181.586,267.514 181.607 C 267.451 181.611,266.782 182.376,266.026 183.307 M285.514 183.004 C 285.741 183.447,286.348 184.166,286.863 184.602 C 287.767 185.366,287.765 185.352,286.806 184.197 C 285.213 182.279,285.079 182.155,285.514 183.004 M293.700 187.091 C 294.525 187.178,295.875 187.178,296.700 187.091 C 297.525 187.005,296.850 186.934,295.200 186.934 C 293.550 186.934,292.875 187.005,293.700 187.091 M236.200 189.600 L 234.600 189.886 236.076 189.943 C 236.888 189.974,237.664 189.820,237.800 189.600 C 237.936 189.380,237.992 189.226,237.924 189.257 C 237.856 189.288,237.080 189.442,236.200 189.600 M186.900 189.876 C 187.285 189.976,187.915 189.976,188.300 189.876 C 188.685 189.775,188.370 189.693,187.600 189.693 C 186.830 189.693,186.515 189.775,186.900 189.876 M194.305 189.883 C 194.802 189.979,195.522 189.975,195.905 189.875 C 196.287 189.775,195.880 189.696,195.000 189.701 C 194.120 189.705,193.807 189.787,194.305 189.883 M214.900 189.876 C 215.285 189.976,215.915 189.976,216.300 189.876 C 216.685 189.775,216.370 189.693,215.600 189.693 C 214.830 189.693,214.515 189.775,214.900 189.876 M274.305 189.883 C 274.802 189.979,275.522 189.975,275.905 189.875 C 276.287 189.775,275.880 189.696,275.000 189.701 C 274.120 189.705,273.807 189.787,274.305 189.883 M254.300 190.693 C 255.235 190.777,256.765 190.777,257.700 190.693 C 258.635 190.609,257.870 190.540,256.000 190.540 C 254.130 190.540,253.365 190.609,254.300 190.693 M293.100 190.693 C 294.035 190.777,295.565 190.777,296.500 190.693 C 297.435 190.609,296.670 190.540,294.800 190.540 C 292.930 190.540,292.165 190.609,293.100 190.693 M241.200 198.400 L 239.400 198.680 241.076 198.740 C 241.998 198.773,242.864 198.620,243.000 198.400 C 243.136 198.180,243.192 198.027,243.124 198.060 C 243.056 198.093,242.190 198.246,241.200 198.400 M113.430 217.467 C 113.289 217.834,113.360 218.320,113.587 218.547 C 113.814 218.774,114.006 219.509,114.013 220.180 C 114.020 220.851,114.271 221.723,114.570 222.119 C 114.870 222.514,115.029 223.169,114.923 223.573 C 114.817 223.978,114.926 224.431,115.165 224.578 C 115.404 224.726,115.600 225.456,115.600 226.200 C 115.600 226.944,115.780 227.664,116.000 227.800 C 116.220 227.936,116.400 228.566,116.400 229.200 C 116.400 229.834,116.580 230.464,116.800 230.600 C 117.020 230.736,117.200 231.266,117.200 231.778 C 117.200 232.290,117.456 233.202,117.768 233.804 C 118.081 234.407,118.254 235.114,118.154 235.376 C 118.053 235.638,118.233 236.358,118.554 236.976 C 118.874 237.594,119.049 238.329,118.941 238.609 C 118.833 238.890,118.938 239.238,119.173 239.383 C 119.408 239.528,119.606 240.222,119.613 240.924 C 119.620 241.626,119.877 242.532,120.185 242.939 C 120.493 243.345,120.647 243.933,120.528 244.244 C 120.408 244.555,120.538 245.084,120.816 245.419 C 121.094 245.754,121.306 246.558,121.287 247.207 C 121.269 247.855,121.422 248.490,121.627 248.617 C 121.832 248.743,122.006 249.332,122.013 249.924 C 122.020 250.516,122.271 251.323,122.570 251.719 C 122.870 252.114,123.029 252.769,122.923 253.173 C 122.817 253.578,122.926 254.031,123.165 254.178 C 123.404 254.326,123.600 255.056,123.600 255.800 C 123.600 256.544,123.780 257.264,124.000 257.400 C 124.220 257.536,124.400 258.166,124.400 258.800 C 124.400 259.434,124.580 260.064,124.800 260.200 C 125.020 260.336,125.206 260.932,125.214 261.524 C 125.222 262.116,125.473 263.041,125.771 263.580 C 126.069 264.119,126.237 264.761,126.142 265.006 C 126.048 265.252,126.233 265.958,126.554 266.576 C 126.874 267.194,127.049 267.929,126.941 268.209 C 126.833 268.490,126.938 268.838,127.173 268.983 C 127.408 269.128,127.606 269.822,127.613 270.524 C 127.620 271.226,127.877 272.132,128.185 272.539 C 128.493 272.945,128.647 273.533,128.528 273.844 C 128.408 274.155,128.538 274.684,128.816 275.019 C 129.094 275.354,129.306 276.158,129.287 276.807 C 129.269 277.455,129.422 278.090,129.627 278.217 C 129.832 278.343,130.006 278.932,130.013 279.524 C 130.020 280.116,130.277 280.932,130.585 281.339 C 130.893 281.745,131.047 282.333,130.928 282.644 C 130.808 282.955,130.938 283.484,131.216 283.819 C 131.494 284.154,131.706 284.958,131.687 285.607 C 131.669 286.255,131.822 286.890,132.027 287.017 C 132.232 287.143,132.400 287.766,132.400 288.400 C 132.400 289.034,132.580 289.664,132.800 289.800 C 133.020 289.936,133.206 290.622,133.213 291.324 C 133.220 292.026,133.477 292.932,133.785 293.339 C 134.093 293.745,134.247 294.333,134.128 294.644 C 134.008 294.955,134.138 295.484,134.416 295.819 C 134.694 296.154,134.906 296.961,134.887 297.614 C 134.869 298.266,135.021 298.800,135.227 298.800 C 135.432 298.800,135.606 299.385,135.613 300.100 C 135.620 300.815,135.871 301.723,136.170 302.119 C 136.470 302.514,136.619 303.207,136.500 303.660 C 136.381 304.116,136.516 304.625,136.805 304.803 C 137.090 304.979,137.308 305.678,137.289 306.355 C 137.270 307.032,137.422 307.690,137.627 307.817 C 137.832 307.943,138.006 308.532,138.013 309.124 C 138.020 309.716,138.271 310.523,138.570 310.919 C 138.870 311.314,139.019 312.007,138.900 312.460 C 138.781 312.916,138.916 313.425,139.205 313.603 C 139.490 313.779,139.708 314.478,139.689 315.155 C 139.670 315.832,139.822 316.490,140.027 316.617 C 140.232 316.743,140.400 317.366,140.400 318.000 C 140.400 318.634,140.580 319.264,140.800 319.400 C 141.020 319.536,141.206 320.222,141.213 320.924 C 141.220 321.626,141.477 322.532,141.785 322.939 C 142.093 323.345,142.252 323.921,142.138 324.218 C 142.024 324.515,142.261 325.208,142.665 325.758 L 143.400 326.759 168.436 326.781 C 195.978 326.806,194.581 326.931,194.710 324.436 C 194.738 323.906,194.975 323.339,195.237 323.177 C 195.500 323.015,195.619 322.515,195.502 322.067 C 195.384 321.619,195.557 320.869,195.884 320.401 C 196.212 319.933,196.388 319.198,196.276 318.768 C 196.163 318.338,196.325 317.732,196.636 317.422 C 196.946 317.111,197.200 316.315,197.200 315.652 C 197.200 314.989,197.368 314.343,197.573 314.217 C 197.778 314.090,197.930 313.432,197.911 312.755 C 197.892 312.078,198.110 311.379,198.395 311.203 C 198.684 311.025,198.819 310.516,198.700 310.060 C 198.581 309.607,198.730 308.914,199.030 308.519 C 199.329 308.123,199.580 307.316,199.587 306.724 C 199.594 306.132,199.768 305.543,199.973 305.417 C 200.178 305.290,200.330 304.632,200.311 303.955 C 200.292 303.278,200.510 302.579,200.795 302.403 C 201.082 302.226,201.219 301.716,201.102 301.267 C 200.984 300.819,201.155 300.072,201.480 299.607 C 201.805 299.143,201.980 298.524,201.867 298.231 C 201.755 297.939,201.918 297.208,202.230 296.608 C 202.541 296.008,202.716 295.388,202.618 295.230 C 202.521 295.072,202.708 294.427,203.035 293.798 C 203.362 293.168,203.545 292.433,203.442 292.165 C 203.339 291.897,203.507 291.345,203.815 290.939 C 204.123 290.532,204.380 289.615,204.387 288.900 C 204.394 288.185,204.580 287.600,204.800 287.600 C 205.020 287.600,205.200 286.981,205.200 286.224 C 205.200 285.467,205.368 284.743,205.573 284.617 C 205.778 284.490,205.930 283.832,205.911 283.155 C 205.892 282.478,206.110 281.779,206.395 281.603 C 206.684 281.425,206.819 280.916,206.700 280.460 C 206.581 280.007,206.730 279.314,207.030 278.919 C 207.329 278.523,207.580 277.716,207.587 277.124 C 207.594 276.532,207.768 275.943,207.973 275.817 C 208.178 275.690,208.330 275.032,208.311 274.355 C 208.292 273.678,208.510 272.979,208.795 272.803 C 209.082 272.626,209.219 272.116,209.102 271.667 C 208.984 271.219,209.155 270.472,209.480 270.007 C 209.805 269.543,209.980 268.924,209.867 268.631 C 209.755 268.339,209.918 267.608,210.230 267.008 C 210.541 266.408,210.716 265.788,210.618 265.630 C 210.521 265.472,210.708 264.827,211.035 264.198 C 211.362 263.568,211.545 262.833,211.442 262.565 C 211.339 262.297,211.507 261.745,211.815 261.339 C 212.123 260.932,212.380 260.026,212.387 259.324 C 212.394 258.622,212.580 257.936,212.800 257.800 C 213.020 257.664,213.200 257.034,213.200 256.400 C 213.200 255.766,213.368 255.143,213.573 255.017 C 213.778 254.890,213.930 254.214,213.910 253.514 C 213.890 252.814,214.082 252.173,214.337 252.088 C 214.592 252.003,214.800 251.329,214.800 250.590 C 214.800 249.852,214.980 249.136,215.200 249.000 C 215.420 248.864,215.600 248.234,215.600 247.600 C 215.600 246.966,215.768 246.343,215.973 246.217 C 216.178 246.090,216.331 245.455,216.313 244.807 C 216.294 244.158,216.506 243.354,216.784 243.019 C 217.062 242.684,217.193 242.159,217.075 241.851 C 216.957 241.543,217.095 240.956,217.381 240.546 C 217.668 240.136,217.902 239.285,217.901 238.655 C 217.900 238.024,218.129 237.368,218.408 237.195 C 218.688 237.022,218.815 236.615,218.690 236.290 C 218.565 235.965,218.726 235.194,219.046 234.576 C 219.367 233.958,219.545 233.233,219.442 232.965 C 219.339 232.697,219.507 232.145,219.815 231.739 C 220.123 231.332,220.380 230.426,220.387 229.724 C 220.394 229.022,220.580 228.336,220.800 228.200 C 221.020 228.064,221.200 227.434,221.200 226.800 C 221.200 226.166,221.368 225.543,221.573 225.417 C 221.778 225.290,221.930 224.614,221.910 223.914 C 221.890 223.214,222.082 222.573,222.337 222.488 C 222.592 222.403,222.800 221.754,222.800 221.047 C 222.800 220.339,222.995 219.565,223.234 219.326 C 223.472 219.088,223.607 218.467,223.534 217.946 L 223.400 217.000 204.440 217.000 L 185.480 217.000 185.332 217.969 C 185.251 218.501,184.988 219.174,184.747 219.464 C 184.507 219.753,184.407 220.241,184.525 220.549 C 184.643 220.857,184.465 221.500,184.130 221.979 C 183.794 222.458,183.608 223.187,183.716 223.599 C 183.823 224.011,183.651 224.720,183.333 225.175 C 183.014 225.629,182.861 226.176,182.993 226.389 C 183.125 226.602,182.948 227.327,182.600 228.000 C 182.252 228.673,182.055 229.366,182.163 229.540 C 182.271 229.715,182.092 230.373,181.765 231.002 C 181.438 231.632,181.254 232.364,181.355 232.628 C 181.457 232.892,181.308 233.444,181.025 233.854 C 180.501 234.613,179.980 236.756,179.970 238.197 C 179.967 238.635,179.689 239.415,179.352 239.929 C 179.015 240.444,178.829 241.099,178.939 241.386 C 179.050 241.673,178.873 242.289,178.547 242.755 C 178.221 243.220,178.055 243.766,178.180 243.967 C 178.304 244.168,178.193 244.843,177.933 245.466 C 177.673 246.090,177.411 247.020,177.351 247.533 C 177.292 248.046,177.036 248.715,176.784 249.020 C 176.531 249.324,176.407 249.804,176.507 250.087 C 176.608 250.369,176.438 251.100,176.129 251.712 C 175.820 252.323,175.680 253.006,175.818 253.229 C 175.956 253.453,175.776 254.082,175.418 254.629 C 175.060 255.175,174.872 255.792,175.000 256.000 C 175.128 256.207,174.963 256.899,174.632 257.538 C 174.302 258.176,174.125 258.792,174.239 258.906 C 174.353 259.020,174.164 259.791,173.818 260.618 C 173.472 261.446,173.276 262.209,173.381 262.314 C 173.486 262.419,173.379 262.866,173.142 263.308 C 172.906 263.749,172.628 264.670,172.523 265.355 C 172.419 266.040,172.183 266.757,171.998 266.949 C 171.814 267.141,171.758 267.547,171.875 267.852 C 171.992 268.157,171.791 268.860,171.427 269.414 C 171.064 269.969,170.872 270.592,171.000 270.800 C 171.128 271.007,170.963 271.699,170.632 272.338 C 170.302 272.976,170.109 273.576,170.203 273.670 C 170.298 273.764,170.006 275.002,169.556 276.421 C 169.106 277.839,168.676 279.421,168.600 279.935 C 168.373 281.484,168.081 281.370,167.583 279.539 C 167.323 278.583,166.926 277.299,166.701 276.687 C 166.476 276.075,166.399 275.467,166.530 275.336 C 166.661 275.206,166.498 274.576,166.168 273.938 C 165.837 273.299,165.680 272.594,165.818 272.371 C 165.956 272.148,165.864 271.718,165.613 271.416 C 165.362 271.114,165.108 270.446,165.049 269.933 C 164.989 269.420,164.724 268.480,164.459 267.845 C 164.194 267.209,164.065 266.601,164.173 266.494 C 164.280 266.386,164.098 265.776,163.768 265.138 C 163.437 264.499,163.280 263.794,163.418 263.571 C 163.556 263.348,163.473 262.929,163.233 262.640 C 162.815 262.137,162.691 261.635,162.154 258.296 C 162.020 257.469,161.751 256.694,161.556 256.573 C 161.360 256.452,161.200 255.859,161.200 255.256 C 161.200 254.653,161.021 253.981,160.802 253.762 C 160.583 253.543,160.334 252.832,160.249 252.182 C 160.164 251.532,159.905 250.524,159.673 249.941 C 159.441 249.359,159.355 248.778,159.483 248.651 C 159.610 248.523,159.502 248.164,159.243 247.852 C 158.985 247.540,158.704 246.743,158.620 246.079 C 158.536 245.416,158.297 244.542,158.088 244.137 C 157.879 243.732,157.791 243.169,157.892 242.887 C 157.993 242.604,157.878 242.135,157.637 241.844 C 157.395 241.553,157.111 240.794,157.004 240.158 C 156.477 237.013,156.249 236.141,155.775 235.454 C 155.492 235.044,155.343 234.492,155.445 234.228 C 155.546 233.964,155.367 233.242,155.046 232.624 C 154.726 232.006,154.553 231.267,154.662 230.983 C 154.771 230.698,154.562 230.008,154.196 229.450 C 153.830 228.892,153.647 228.248,153.789 228.018 C 153.930 227.789,153.779 227.220,153.453 226.755 C 153.127 226.289,152.950 225.675,153.059 225.390 C 153.168 225.105,153.000 224.361,152.684 223.736 C 152.368 223.111,152.180 222.405,152.266 222.167 C 152.352 221.929,152.156 221.222,151.831 220.596 C 151.507 219.970,151.329 219.315,151.437 219.140 C 151.545 218.965,151.335 218.368,150.971 217.811 L 150.308 216.800 131.997 216.800 C 115.273 216.800,113.663 216.858,113.430 217.467 M151.536 222.303 C 152.271 225.106,153.198 228.570,153.595 230.000 C 153.992 231.430,155.255 236.110,156.402 240.400 C 157.549 244.690,158.985 250.000,159.593 252.200 C 160.201 254.400,161.083 257.640,161.553 259.400 C 162.024 261.160,163.115 265.210,163.978 268.400 C 167.858 282.733,167.653 280.371,165.649 287.716 C 164.796 290.842,163.157 296.910,162.006 301.200 C 160.856 305.490,159.053 312.150,158.001 316.000 C 156.949 319.850,155.964 323.585,155.812 324.300 C 155.459 325.965,155.042 326.058,148.614 325.915 L 143.428 325.800 142.561 322.800 C 142.084 321.150,141.311 318.360,140.844 316.600 C 139.200 310.409,135.848 298.000,132.793 286.800 C 132.403 285.370,131.145 280.690,129.998 276.400 C 128.851 272.110,127.416 266.800,126.810 264.600 C 125.516 259.901,124.809 257.285,122.001 246.800 C 120.852 242.510,119.415 237.200,118.807 235.000 C 118.199 232.800,117.297 229.470,116.802 227.600 C 116.009 224.601,114.732 219.935,114.147 217.900 C 113.958 217.241,114.999 217.200,132.073 217.203 L 150.200 217.206 151.536 222.303 M222.596 218.500 C 222.449 219.215,221.824 221.600,221.208 223.800 C 220.592 226.000,219.149 231.310,218.002 235.600 C 216.855 239.890,215.597 244.570,215.207 246.000 C 212.495 255.945,211.936 258.007,206.053 279.800 C 204.924 283.980,202.563 292.710,200.806 299.200 C 199.048 305.690,197.224 312.440,196.752 314.200 C 194.834 321.354,193.883 324.636,193.537 325.300 C 192.997 326.335,157.200 326.390,157.200 325.356 C 157.200 324.741,158.598 319.306,161.201 309.800 C 162.442 305.269,165.739 293.056,167.248 287.400 C 167.717 285.640,168.599 282.400,169.207 280.200 C 169.815 278.000,171.251 272.690,172.398 268.400 C 173.545 264.110,174.808 259.430,175.204 258.000 C 175.601 256.570,177.397 249.910,179.197 243.200 C 180.996 236.490,182.795 229.830,183.194 228.400 C 183.593 226.970,184.433 223.866,185.060 221.501 L 186.200 217.203 204.532 217.201 L 222.864 217.200 222.596 218.500 M279.300 280.676 C 279.685 280.776,280.315 280.776,280.700 280.676 C 281.085 280.575,280.770 280.493,280.000 280.493 C 279.230 280.493,278.915 280.575,279.300 280.676 M305.102 291.400 C 305.207 291.950,305.362 292.400,305.447 292.400 C 305.531 292.400,305.600 291.950,305.600 291.400 C 305.600 290.850,305.445 290.400,305.255 290.400 C 305.066 290.400,304.997 290.850,305.102 291.400 M281.293 292.400 C 281.293 293.170,281.375 293.485,281.476 293.100 C 281.576 292.715,281.576 292.085,281.476 291.700 C 281.375 291.315,281.293 291.630,281.293 292.400 M227.491 293.089 C 228.201 293.177,229.461 293.179,230.291 293.092 C 231.121 293.005,230.540 292.933,229.000 292.931 C 227.460 292.929,226.781 293.000,227.491 293.089 M215.775 294.500 L 214.600 295.800 215.900 294.625 C 216.615 293.979,217.200 293.394,217.200 293.325 C 217.200 293.016,216.870 293.288,215.775 294.500 M283.511 293.893 C 284.451 293.978,285.891 293.977,286.711 293.891 C 287.530 293.805,286.760 293.736,285.000 293.737 C 283.240 293.739,282.570 293.809,283.511 293.893 M295.119 293.898 C 296.944 293.972,299.824 293.972,301.519 293.897 C 303.214 293.822,301.720 293.761,298.200 293.762 C 294.680 293.762,293.294 293.824,295.119 293.898 M218.778 296.700 L 217.400 298.200 218.900 296.822 C 220.296 295.538,220.584 295.200,220.278 295.200 C 220.212 295.200,219.537 295.875,218.778 296.700 M212.531 303.000 C 212.533 304.540,212.605 305.121,212.692 304.291 C 212.779 303.461,212.777 302.201,212.689 301.491 C 212.600 300.781,212.529 301.460,212.531 303.000 M248.901 302.200 C 248.905 303.080,248.987 303.393,249.083 302.895 C 249.179 302.398,249.175 301.678,249.075 301.295 C 248.975 300.913,248.896 301.320,248.901 302.200 M244.914 304.200 C 244.917 305.300,244.995 305.703,245.087 305.095 C 245.179 304.486,245.177 303.586,245.082 303.095 C 244.987 302.603,244.911 303.100,244.914 304.200 M214.000 308.525 C 214.000 308.594,214.585 309.179,215.300 309.825 L 216.600 311.000 215.425 309.700 C 214.330 308.488,214.000 308.216,214.000 308.525 M265.570 309.500 L 264.600 310.600 265.671 309.657 L 266.743 308.714 266.907 310.057 L 267.072 311.400 267.136 309.900 C 267.212 308.113,266.869 308.026,265.570 309.500 M257.700 309.476 C 258.085 309.576,258.715 309.576,259.100 309.476 C 259.485 309.375,259.170 309.293,258.400 309.293 C 257.630 309.293,257.315 309.375,257.700 309.476 M273.300 310.900 C 273.425 312.527,276.908 312.989,277.072 311.400 C 277.136 310.778,277.108 310.756,276.948 311.300 C 276.549 312.653,273.697 312.248,273.425 310.800 C 273.203 309.617,273.201 309.618,273.300 310.900 M267.152 312.112 C 267.345 312.305,268.019 312.398,268.651 312.319 C 269.709 312.187,269.681 312.159,268.300 311.968 C 267.440 311.849,266.950 311.910,267.152 312.112 M238.500 312.276 C 238.885 312.376,239.515 312.376,239.900 312.276 C 240.285 312.175,239.970 312.093,239.200 312.093 C 238.430 312.093,238.115 312.175,238.500 312.276 M223.911 313.093 C 224.851 313.178,226.291 313.177,227.111 313.091 C 227.930 313.005,227.160 312.936,225.400 312.937 C 223.640 312.939,222.970 313.009,223.911 313.093 M253.911 313.093 C 254.851 313.178,256.291 313.177,257.111 313.091 C 257.930 313.005,257.160 312.936,255.400 312.937 C 253.640 312.939,252.970 313.009,253.911 313.093 M292.700 313.089 C 293.415 313.178,294.585 313.178,295.300 313.089 C 296.015 313.001,295.430 312.928,294.000 312.928 C 292.570 312.928,291.985 313.001,292.700 313.089 " stroke="none" fill="#fcbf99" fill-rule="evenodd"></path></g></svg>